<mxfile host="65bd71144e">
    <diagram id="LXIG2xzFiE_9KNmlQfjz" name="第 1 页">
        <mxGraphModel dx="1009" dy="619" grid="1" gridSize="10" guides="1" tooltips="1" connect="1" arrows="1" fold="1" page="1" pageScale="1" pageWidth="850" pageHeight="1100" math="0" shadow="0">
            <root>
                <mxCell id="0"/>
                <mxCell id="1" parent="0"/>
                <mxCell id="2" value="" style="shape=image;verticalLabelPosition=bottom;labelBackgroundColor=default;verticalAlign=top;aspect=fixed;imageAspect=0;image=data:image/png,iVBORw0KGgoAAAANSUhEUgAAAscAAADBCAYAAAAjMB0aAAAgAElEQVR4nO3dfWhbZ74n8G/udsuFe/8aI3uaLO3Y9K/I+EWwtBvLkzixBjxMMuLCQmKhyqTpwG2xI3tnplu72HKo0zvtrC1HdAamqbFqZBcuDBp3mMBIiZOxnJnhgiwLK38Fa24hSWWhgV3uhcvsLNk/znOk8yodyfL79wOlsXR0zqOj8/I7v/N7nnPi+fPnz0FERERERPib/W4AEREREdFBweCYiIiIiEhgcExEREREJDA4JiIiIiISGBwTEREREQkMjomIiIiIBOvBcS6Kodm0yZsFRAc7MbRcqE+riIioJunZTjh0x2oeo4mIrLIeHDe1oDn8KaI5ozcb4H7Ti0RsFYfv0JvGjMPoZLIT0oloJqV4KRfFkGMahktJTcMxGD2E624PpabhcHTC4dCs132SnmWgYVlquor9K40Zs/2kGrkohkz3KYP9s55S03CYfAfjwLWSOrQ3FcaNNSfOv9awg5kQER0PL1iftA1vBADXF2m4r7fp3+7wYRwBrObccDeZzaOA6GAvbqxZWFzXBGIhN3b7UJ6e9WEBAMKfIno5VKbttLe024oX88l1GGx55eeyPAhXIGFtYrNtLjUNx2ctddgexXd6NYyk0T50VHX0wnvVh5mz6xjuqDBt7hQuBLIYcAxi/E4IbkQx1DeJsr+g4e/WjfOv9sLl2MJ8ckSx3aQx4/BhwRdG7KUCoP1FcxaWV+SU2qg5ZqQfLMAZiBtsq2ncDTsxfsfkt6+07LVO6Vil49V8R60Cop9Jn7zR14kb2rd9x2x7JCKqoIrgGGi49Ba8Dh9mzsbR/JlJkKs9+BqcuJyBOG5dKhNmpKbh+KyaltWmsDyIgbB0guv+4yBcH0TRbRgAmQX1xifHvVJYHoQrdmFPLiL2XgPcoXW4AWl7uKp5OzUNx1XjUEG3fVm50Kphm0sEeuEIaF7co4u6w6UNw3NeOB6kMdxRIQhrakDbpRBiGBQX4m7cSrrNp1f9biLwVU2wgAGHwXYS9sEVlv/QBpdW9us0Zhyf6ttS3CYV24YcfKbiWEBCf4yUl99k9l2l40/2zXIXF9pjlA+OsFj22bj0unbbFMF481kGxkRESlUFx1L22InJr4BhOXCpgWFQodU1UePcLUpNwxVIwDu3Lp0ELwUwHuuFa7bFIIuiCNRkuSiG+rbQspuBcWoajge9VWR1pOAAcxYydHWw78G5QSCanu3E7T1afMWLPB39drS363C3t49Kd4YWpIBNRRGY5qIY6ruL83dCcF8KIVn18tswnFzHsPZlcXFVPrtaJ5ptsrA8CFcWkLK3WYzfWVcH3UYXfjUpbVvp2U4MQM4GFxAdXIB3bh0XHnRicrlb2mZFYIxAfE+OFUREh0mVwTHQcCmEW5UmUp7kDILH/c4cy7favaogoQHuUBwY7IVjVn+bsbA8iM9fDpWmf7aFRFcLJgyzVYK4DeqdW8fwSzW2MeCDwc3fo8/gFnMxA9g1gdibVcxrbRIux2Tl6Xb7guzIM7iINCOyrM6AzzRgNS+JMc/spmc7MaALwCWGGWRAcxwAgIRx+YFROypOIyksB3Dj1beQrHAxXa79ZmUV6vancTcMwCf+TIWlMp4OAB1xnB8sJSbMj8Ol0hOWWxDRcWQtOFYGKsXMiJQluufSH2ALf7yLRNcFTJicCPYzcyydfJylDI58a3FuHcMdigB5UJ0BanjtArJ9g4iKk3Lhqyzwai8aDLNVBrdBc4DhLV5fGMmzRm30Yj4Zsp7pUt7SvaoIyjsA3e1mTXZLzjTNw4eBcOmkqQ1OSidTZYYwIQWeynlqSx4Mb+fexfm5C7h3dRIJo5pJxS3m0vpQTJOatrpmqiurKF7YvYVsn/qiRx9gm23HZjWgyn0GZdehdt2rAiDT9ae9UFO0o+z2oc/4agNGs22kFvJ3szQPXYBmUM6g0HZ9Hcnr2mU1V5k1rqasQvGbvmw27RZWY4D31U8xkwrpM7VdLThl0n7xLSyUVQipuOhD4YND7DPJ4meeIKv4jZtfPnaX3EREllgLjuVARZXRbYA7FEbW0QtHTBF85KKYDCTgnQuZBiP7kzkWgUPXBGLJcoGSlP3qXh6Ey3G3dJJscuPW3BYcfdNoSY4A2QSczVJklJ7txF0rnY3MgqZUXN1GXxjJZJUZm44RJJO9BrfNS7fS5ZNkerYTrkGoA8awD3fnlCfmND7PvoVkMiT9mYtiqK8XMy/LFxFiHWlKAqRgBKrbx+nZToOOUQnc+OwCYsn1CllxkQmrUcPLzdYm7BhBMiS1X7qwa4Pb6BZ93VRYh7ELiCVDxX1qqK8TM6rfVb/+CstxNN9ZL2Yn07OdGBgUHQkrbB8LvjCSIfHriOUNafdT3TZSPTkzqs/W7px51jVhmjUukoPwphY0466FpbVhOBmS1tWaE+ffbwCemU3bAnfILdZr6QJ7N6QfiO/pCyN5eQtDs2ncurxVTG44A3EkLzWIi6VOLBheCJiUpxARHRNVl1WotWE4GUfzoNwr3IetDyaR8IVxy/DEZ/G2qwhUisp0vrLC+78mkP0fUnY4afGE3HAphOQlaZi3YpDQMYJ5X6c40ToxfkcKHNouT+D2Tk96a5NwOaQRGep5UiosfyoFPorv3XZ5As6+u+qRRbom8IZq3bRhWBkENXXjfBdw76sC0GEWzqbxubKOW57T9TC8YR/upkbQpliG983KdbaF5U9FJjSL24PTuBaqsm60oxfeNZ+1sgoA0u9aqV1VZPKqlsbnAajb0OTGNd8kBjQd2rTrr+HSiGrfajvrBcJbeALzspzC8qfSBaMyO9vkxkTgLlyxVRQuKZah20aq+15SVrvSyAoaYZ9BnbJxOYM661rryCBtuOBLYMBSWYVoTSAube/PYFzC43tL+r/mArsN4g4UWgBUKKkAyoxWIZduRXE77ISzKyHd5Wty49bZaTj6pJpj1TG5YwTJ5Ih0bO3rxL0d3AkgIjpqdhgcA3LA2zIrB41ezIe0J6MydbkViVuDyZGdNbNcj3dTUgZF9YoI9Ba6LqBbDgDlYMJ0tAsLdmmUgyfZBBBOGAYY55V/vtpisGz97+Z0lVlYbgtZeHFNF0C14YIPuK0KrJ1orliHXcBqLAGvz4uF8AISawkkHFkxxJdVdcqCWekcmYti6ANgYie/Y24LWSSwYDjklvIP4/Wnr9P1ll3ck2wCTldA196G1y7AGdAE1obbSGXFNtVSw1plWUVpmQHcWHNi/P3qa2aNSxssMu2QJ3T4MN7Vi4FZ/bZkvFxx58fnxQLKb3/pWamD3bVsb6lWv6PCsbPS+0REx1AdgmMAKGDrsfzvBdxe9mmyEMoARTq5NRezrLuZhdtFa+rMa8OlAMZjlcZ5rpKqHrr22dRSH6rstJhU1KXeq70Z1UuFcQMTiJ3dwoKonzy1LIbcq6ZDHlAcXeSaLmtpYftLTcNxNYvxuVPmnSPF3Q3vXKUyESuqzK4CUJcNhRS13ztuzA6ULq52o4zClBiJBjAZ11fJ9KLUfLuQAt63auys1gD3+xO41xdH+nqbVGtsdtGhGFHi1iWgebAXMylFe+Tt8k4I7qYCth57ce16AzBr0N4yY33v6W9DRHQI7Dw4LnbWEyf01DQcV3vhyBpniaTbuBcQ0wSQC1eNbhnWEiTsrvSsFICMvzqJG6pMcQPcoVCFT9fCSobV3Klmp/TkwkvVZDOljK2z2mGemlrQjEld+YRcN9w8V03YmMZMMdgsdb6Tyl1QuUOeyQMVEma1p6pb1qU6TCudI43qrGtmug4rSMWlkoUqs9Zm20exU20V81Iqlgjs9YgHuSiGri4YXhCqhzjTMhmGzrSUQX03xhko1yFPo8mNW0l5qcZU2XbxPdyhMGYcgxjqSiAhj1uc9InOvg1wh6QMsOHz9wwvAsQFgMVmExEdFzsIjhW33JUnwI4RJOcAx1UfHI+1B2Qp6MIadBnWw5C9kB4a4sV80o02tCDr8JXGDa2atP6y5U6qz7aQQDOuWQ64TqFZUxcs3R6f1LQzjZlZYNg0aGlAy6vAjWzpprp0m1pdVtHwcjOwprz1Lo2D7bo6qLgzULqgiFXz++a2kJVr12t5bK7mgQrm2b7yGcKBx0YdOKVSIukxwQsiSKmtlMJoHV7wAQNXp3FBcWFYWJ7G6msj5sH3Sy1w4i62ckBbEyBfXKjLKgy2j0tvwRvwqcf3ttCp1kwpS1mnB+RUUXOszrRW23JNfwjTOw1ltqUattMn2QSAt0ovFC/qnPD6nJrAvA3Ddy5gqA/qdVv3zn0cyo2IjjfrwbHIyABOrOa6gQ9EwGOUqeoYQfJOC4Y0nb4KywHpNvncFlx9nbjhCyN5/ZT20wdSKTsonyzFU78+M8rKiiGTdLf+lUO5KR6HbHJSLXyVBbouwPoaaoD7TS9uXJWGGJMuONy4dQcY6lMOOyYFLuW0XQ/D6ygFJs5AGONdCXVZhVw/KQeIITca5KebKW9nK0dCsKrJjVuV6j5Nxi926oZXkzsKVpfZL2apNdQB4A6zxQbrsO36OubRqR5hwRc2bEuRXPdeXO9ezM95saAqqzDaPtownAwDDmUQWuP3Sk2LYdNCUvlLXydu7PTuj+UALY2ZOpQgFef2hehYXO0Hy3XI0y8Fd8OAM3AKpcy1tO5vNUnb2UK2NG3xYjrZjehgJxxrB+/OGhHRUXDi+fPnzytOJWczxKNI5drKak5C+vFGKz1NS7bLj2i2Utdb4aEmACqO7VsKro3mYd5h8TBk1Hed0RPOUtNwfNZi/IS8ZkXmULntlrmdXr7mvfw40QRI6zGMFs1oIhVHYBCcgThuvbZaeT/TLtV0OEHzGlsj+jGfzQNP88yxfptUT2uwn5fZlqTPNsMbXjAZ5aM0P2UZibZ8hDXHRETVsRYca2/Dm9RzGnNifOEC7nmNb1Huuzp1eqODx/hJiLqpTIJj9cUbA4g9YOUi1MIDS3a2/HIXUqIFO+qQZ1XlIN2MYXBs+IjyQ9oZmohol1kMjomIiIiIjr6/2e8GEBEREREdFAyOiYiIiIgEBsdERERERAKDYyIiIiIigcExEREREZHA4JiIiIiISGBwTEREREQkMDgmIiIiIhIYHBMRERERCQyOiYiIiIgEBsdERERERAKDYyIiIiIigcExEREREZHA4JiIiIiISGBwTEREREQkMDgmIiIiIhIYHBMRERERCQyOiYiIiIgEBsdERERERAKDYyIiIiIigcExEREREZHA4JiIiIiISGBwTEREREQkMDgmIiIiIhIYHBMRERERCQyOiYiIiIgEBsdERERERAKDYyIiIiIigcExEREREZHA4JiIiIiISGBwTEREREQkMDgmIiIiIhIYHBMRERERCQyOiYiIiIgEBsdERERERAKDYyIiIiIigcExEREREZHA4JiIiIiISGBwTEREREQkMDgmIiIiIhIYHBMRERERCS/sdwOIiIjoAMtFMdQ3iYSlib2YT46grcJU6dlODIQB79w6hjt23kSiemLmmIgOiDRmHJ1wODoxk9rvthCRnhfzyXUkDf8Lw2v2sVwUQ45OOAajKGjeWrgq7fPF/wymkRWWBytOQ1QPDI6J6EBLz+5lwFxAdLATDscgorm9WB7R8ead0wTZITcaqplBaloKmGfTu9VElb09HtF+YVkFER1gadwN7+Hicqu4t7aHyyM6VBYw4FioONXd2U4MhK2VV1Sj4VIIyUvq19IPKrenfvb4eET7hpljIjqYclEMOXyQT33S7ddpFPNDcsZI/k+ROZKzO47ZtPi3yARrP+PoxNByoTS/Yl1lAjf6NLdv5VvDxf/U2WXTZRIdGeXKKuT/fGh+DKCrBafk/U3er9Ym4RL7z4AIMnVlFQ7Nfq6gLquQ7vLI80HYp87oavdXxb6snE9a/HsmZfAZ5XGl0vGowvHBdJl0IDFzTESHT2oajquajFHYBwfCSF5vU702oJik8FVWN6tEoBczL69juNrliQA6q+1QpFkm0aHX1IJmAAlksZUD2prKTCvfffG1oKHDjWRyZI8aqWyDQQfCtUm4BoFYyK16bUB5p+jZlr7TYdiHoeY4br1WZnnVHB+0y6QDiZljIjqYmty4pejkI9UmjqANBUQ/k05EzkBcylbdmYATAMJxTcbJifE760gmQ3A3iduyiizXvE+aauFBGugYKc1H/lzIjQbF8uALi8/GMd4lPvuZtnOQeplEh18bhue8KN5R0WV6Ff/1TSIBL+avawsq0pgpZlqNa/urq+dtgDtU2oflfXO4A0h/IQLj4v4qjiNrd7GquZsj1zwPd0A6BiiOD7GAdDRIxFZRsHA8snZ80CyTDiRmjonokHmCrMi8JAK9cASU70mZrRb5T99b6gC1qiGptMtzYvyyfMJvgPtNL26sLQBrW3iinFy7TKKjoGOk9iywYr9bmO1F8vop3SSF5cE6De1WwNZj8c+wDw5VjXAC2WdAt/xn1wTeUC0rjRlF6YQ11o4PxW+sWyYdRMwcE9HhktuCXByh6+leNlubxowcGHdNIKbIHFtdHtFxZ5jdLTNUWykwFndUdBllaZ6uQKJOYx6XLp6Ld5YU/5nPv4DooBwYS7XVcua4LB4fjiQGx0R0uIj6R0BzyzIXxcxymdFPiycxL+ZFuUQxw1R2ed043wUACdz4Qi7aUN5K7a1rj3yiA0XTidWwI51Bhzups5q4IO2aQMzwwlUq05BGtqhXmcEpNIuShkQgrCizSmOm7HBvigzwHWmUjSdZC/eYeHw4khgcE9EBVjrRlXqHt+ENOaOjPBn3TVrM4CxgwNEJh6MXN7QdY4qBt3K0CukWKYBij/jSZ5W3UomOIGUd7lyx4lY9aoVcqy/uyEivj6ANbRg2GrtYMWRiqXa3NqeaxbGgOFqFYn8t7uudcFgulyjVVQ/ohm0zOh7x+HAUMTgmogOsAe735U5yilcvhRQnapkX1y6VeXxAkxsTitukzkDcoKxC7nik0TFiuLx5drqj40Aum7gqd4T1VR/MKjPQfXdx/k59OqU1XAoUO78VqTrXyioFqpp93xc2KKswPh7x+HD0nHj+/Pnz/W4EERERHVC5AgrPwnBdzWL8jkHAJ9cVd00gpswSqzrAOo0/S3QAMTgmIiIiIhJYVkFEREREJDA4JiIiIiISGBwTEREREQkMjomIiIiIBAbHREREREQCg2MiIiIiIuEFqxNuP3uym+0gIiIiItp3zBwTEREREQkMjomIiIiIBD4hj4iIiIhIYOaYiIiIiEhgcExEREREJDA4JiIiIiISLA/lRkS0m/7fX/8v/vqXv4DdII6vEydO4IUXX8R/euE/73dTSOB+SYdFPY8fzBwT0YHAEzA9f/4cf/3LX/a7GaTA/ZIOi3oePxgcE9GBwBMwAdwODhr+HnSY1Gt7ZXBMRERERCQwOCYiIiIiEnYcHBeWB+GYTav/dnQa/zcYRUE3hzRmHJ2YSQFAAdFB+d/G8z9elOtG885sJ4aW9WuzOvr1bbT8na1/aR6V2lrp+9Tn+xIRERGVtzujVfjCSF5vU7+WmobjM/2kheVPsdA1gVhH7YsrLA/CFQDG74Tgbqp9PgdOKm68bnJR3A57cS3ZYPChNGYcPixoXzb6TcoqIDoo5hP2wRFWv+sMxHHrktHytdowPOeF42oA0dfMfp8CTl0Oo7mvF45ste2koy2PlWAQsXzplcZeP/w9tvrM/tEiRiOAZ6of9hpnsb0SRDAuN9Be+7zy9xEMxoB6fj+i3fJoEaORjOKFHWz7OtJ+v9G+k30hg8jYIuQW1vW4cZDofgeJ3TMFz+l9aM8RUXtwnItiqG8SCQBAAo6wFDBNAIbBFACga0LzQhqfBxLwzgWwOtiJG2vi5bVOTXAnzR9dE4iF3NCGZA2XQkheUs93xvEpmnc7WE5Nw/FZi2GbdqaA6GBvcX24HJPSP8T3f/KFtN4TDvVakgLWNgwn1zGseD0924nbzaeqWL68/taR1Ky/9GwnBh5PYEIbGKu2B2M3+jpxQ/ui/Js2NWA4GQYcPsycXceFB50Y0G1DvXAESn9559YxvIOLKjroxMmttR83/fU55e6Gxh4/bvagGGjvlszSGCLox80r+7cuDkIbaP9JF4SAyz+Fgxtv2uGZmkIx0N7v5uyW0/24OQVxcZ1Cu99v8JtIx1Lsa8B8ENpgXe3BcZMbt5JuKWubfauY7Sssw3LmuJQ1bkBDaB1uERRm3ywFPdr5Hyeq4E9ef6lpDIS9mE+OQLlG0rOduA1ACqzDaAmp329+uUEKbI0uWtY6sQCnlHl/Ng3HVRF0GwWzAIDJUsAuf05sD0XVXDjkohjq28K15AiGk+vSax3rSF7XfL9mq9lqOhLyeeRhg6v3mARitnPwT53b71YQVZT/Og+09h/gwJhoZ3anrMJK5jgXxWQgAXRd2PnyUtNwXIUUMKa0wZ0ikFS+B3XwWVgehCt2AfOuuxgIJIplA+qA0lks3VC+7nJMqi4IpDKPUg5VXYIgXQDcc4VxPubDjTVnFeUgdzF5NQHv3DrMLxUa4H4TcAxGRWCaxt2wE82Xgbbr6oAT2ouR1DQcDwAvnLqsu7x+1MGulGHeuW6c901iwJE9eqUxtEN5xOIZ9BhlKh8tYjSyDZcqU6K8HbuNyFgMJ3sbEYtnAJsLnvYUInHpxK7KfqpuTWpvD6tvz9b39rF+/trbv5mlMUQ25b8WMTpm3A71dJo25u8jGHwK11Q7UsVlGU0Tw7b8t80Fv/8cGi23QVsCY1P/NlbaQIfHZgwrebtBgCy2gyajfUwqYbKtBBH8ugOuXAyxPGD39AORRWS02wy2VduUdt9QlzTtTumEets3KFfQljUU95vK68GOjHSM8rvwNCjvE9p1AP2+aXm/0Ry7ImMYlf+tOgZq9l3Fvg+I9fy1CzfbN0rftewxVPm+1TaUP85aakMd1Sk43kJ00Id7rjhu6UocjKQx0zeJZp8Xicf1aUFRxwiSyV59WUUxgBaBZS6Kob5BRJXTrE3itiuOZLGWN427CCOZVAS9H0TRHXJLgeZZfXZULjuIJUPitTRmHL0YgjrrmQh8ivMGZQvlXcBEcb7l18H8q52YXO7Grde2kEUzLjShcja3YwTJjjRmwj7jEggkFBljmRPjBrMqfJUF1hYMpheUJTJNDXBfX0d38yBcX6ThPoZ3CciA7Rz8nqcYjYhgTHsgPO2CyxbExmYePfKZ5FEMsbwdnh4bgG0AecQ2OuD3n8RiMIbI1/246dnAaGQDGdjFgTeDyG9d8E/1F09okaWM6sCe7/XjpljG9koQwbHFOgZ15W//2q9M4SbKlzRklsYQybngn5JOaMZtzCAyloHdM4Wbp8Vnit8zj5U40D81JU6I0vdeXLHD32Oz0AZFICCXwDxaxGgwCKhO9OXaQIeF/YofrmAQseAYYrpgzoae79gRU+1jeaz8NoPGXj/skPZMbMbw1DMFz8YYIpEYXH4/Tkbk/Vma03Z8EU/FtiIFXxGstErLkgLjRnim/KX9eCyIIOrbJyHVPoWbV0R7VoIIRhaRkfer/H0EI9sm5SWV1wPEa7FgDC7/FDw2sU9E7sMuB6ciMLZ5puCvuhxBPraUK2nQ77uZpTFIu24pQMbmIkY3pfnZxfwij+T5ZRDZaMfNqX4xy/sIBuX3rbTB4nG2bBvqa4ejVUg1wwhPIvtmHOdjveYjVRT/G0T0XhzZQBzDZ+vzJSorIPrZArxzilKDJjeu+RK490flCAheXFPdtm/DsCJQa3jtApxrW3hitphcFLfDToy/rww+pQ5pidiqeqQO31sVM6QLVxXrTZHxtjKCR9v1MJoDvRj64C4Svl7pe3f4MI5JTJYd9UGqWU7K/92ZgBNS9jupfL34n3Gm90k2IWXTjT4z5zVccsOlEJLX2wxHPBkIA4mAdvsaRDRXfh3SIXe6HzenpnDTY5cOjGNjiDyS37TB3m7D9kammFHJbGSA1nZV0Gr/jnyAFyUatpOlA740BTz+0jQ937EDubw0z0fSic2lOPM19rhgRwapRzggMkht2uDylE5kZm1UZr1s37SVvids6LmiOBHCjo5WYPvrbViSz2AjrymBOe2Cy5bHxmZeNal5G+jwsKHHP4WbU364bHnEgmMYDd4v/Y6n29Xbn9g+2lsVEaTNBZcc1LS60GOzoVFzLmns9ZcCH7E9Pc0DQB6ZjTwae12Kfd0OV6/6eLBjp/tVgVdjawcasY1t1Sat38ZLn7ewHgDYPaWLC3u7Hcg/hTzHTDyG7db+3avTzWewkbfDo7hAtfe60JhPIaP6WspMbiNO2oB8TtERWXmBa7OjXfV+BZaPs+XaUF877JB3F80+J4C3MNzRAITW4VZOUyZT6QaAlGI6RfBn2iEPtXbCeoLsGrCgmy8A3xNAbl1XC3Td1nQdzby4ZraYZ1tIoBnXtMHiSy3FoFpeD04LHeQMa44hBZHzs51wDMrZ1wK2HgPNZzWB/ZwXjqsL8L4ZEq81wP3+BO71hZG+NFKmNENRGtI1gVhyHU9mO+GYVdaSi06DrxqNLiG1x+ky/o6Fr7IAWoyXGbuAWEh990FqS7OuzpqOEdHpRJu5aexxwR6PIZM/h0abCBLr0XlPPjnltgFbB9SnMumgvJHLA6cPQNFlPo888sgExxDTvKVeEzacVDS32JFQ0N6iBgC0Wm3DU2yjEY2q1SEFO1KAbSu+Vq4NdNhIQXKP5k6DHKgGNzLAaTu2N1PYbnXVpUY5n8sDp7fxNA/YmjR7ZlNjcd9tNP54lbS3+gEojwa2c/D7gWAwiNG49JK67GKn6yGP7RzQ2F6fb2O8iKfYRgaRsTHNG5pG2k4qXpF/9xJt+Qlg/TfYtnqcrdCGeqpLh7yFbOnlmjrQdYwgmRypuSlWVRtYl4aIW8etJhQ7jpVlFGDvgrbr65if7YRrtgXJ6+WCUGDhQRrDHeL3aHLjmq8Td1MjaKcSGOcAABuVSURBVNOuC8VFipQpbpC+s6MTCIQxHvPB4ZAndmL8zjqSKKAAqC9+cqu4t+bE+ffLFIC82qK5YCpgNZaA0xXQzCuKyQAwfoeBMYnMTTyF7TxgtwFShnMRsc08epo2kGl1wbPDE7DyQG18sjU+Me8bmw022Ex6qVv0aFE3+oBUQmG1DSfRCOXvAuzJiZ0OCOlOQ0RxISTtqxvIoBHbG4DLs9OLVvV+Z3SBahxk1SqPlaAYLUfOiooRIVSUHWkfLWI0EsSKYl/c2XowusCsM3EnzbXD4Swjm/r+B1ZHCDmIx9m6PyHvSTYB71lFGLM2CZfyVnilB0qkphXTpDFTl1vnp9DcBWS/quYhElKw5p2rooPYSy1wrt3Fqra9z7aQ2IWgWepgZxIyig6P3sAEnOFPVeuw7brJRULHSLH04VpWlDB8AEwk13HrtS3cW4OUSb4zAWfXBXQ3AWhq0N0VSH8xiUSZspEnWYMB3+SA+jXl3AqIfjAJBAJiXpUeWkJHXSYew7atQxGASbcAEY8g+NvtOoxskUEsnkdju106SIvborGVUkY1s7SIjPKWsNU5L41hdGwMwZXabgPavmkDNjdgMKIpOlrziEXu13w7eTu3DSgzv48WdVmgsm2w2dFukzpPFue5EkEsr75VSkdU/j5im6IkQGY7B1drBrFgBLGmnWeNt1diyMCOjtNAsaQqHitti/n7WIznFWVU1tseHBvDqC5DLAVnjd+U55bHSiRWfh/TlWxhx+vB3i6VlEV2VMYlZWEzG/qjh7TvZhBZMnjPovzXeVVWV9r3q2hDHY+z9VLf0SpyUdwOA4nwoNQZDjAdm9hQahqOq1mMz50S2cg2DM81w9HXiWzV5RQJZJ8BaAKkERy8uKF5EEVheRqrr42YBHENaHkVuFHMukqBWkJbVqEsl2hy45pvEgOi016xQ97VBXjn1us8FrKWE80vyf+Wg8o4hi81oIC7xY6EZdugKCHxzskjW0hPuFvomkAsGcbnjjieNI3g2qty1lodnBeWBzEQdmL8Tvk8r7aspPDHu0h0XcCE4rdIz4qyjWIduFQWMtTXiRmOcXz0GQ1ur+lFLb1mR7sthhhcqqDZEttJNCKmuqVoV3V8scPjd6lum6rboH9IiTQvgx7nZrTfMy6WpemA2NjjgWsjqGhrKVNjvzIFz9IYgmPKwgrrI0Ho5m1zwdO7jcjXFaYrLsOGHn8/no6Zj6ZBR4V+mweMHzphb7cjEsnA/p1qtwKRMY1r9rspZV29H56vx3T7brENFvcrc3Z4PHaMRpQlE/2wRxT7mMExyu7Rd86rfT1AKinzLGJUOcqDct/StCEmyqvUv4cNPR4XNoKK/bO4HmzokWpDFPsujI+1JuxX+mEfWywdf1r74Wld1JR5lWtDpePs3jvx/Pnz5zuZQamM4pQYoiyOWy+HpVpXnxcLj8uMjqCoSUa5ulIRtMHsqWzKodyU7QokAMVQbtoh1nTDrxkOVSY/bc6J8bkLuHdVGo9XfKr0sA7FvLTjCavLOQql9WQ6Zq/6ISBFZhcaov77vHKYucfKaQuIDgaA97VZcP240sVvXvwO2qHwSus5PduJAeiHsCtfviKtU5RdJ+L7Y0I/EojBsHp0NPzHv/9bjZ+sx9O06CD527/7+/1uAgm175eoyxMojwSuhz1Vj+NH7cGxIsvoDMRxLdurCpRMAzxlUCMHx29uwVXpgRGaAPBoMwhaVZ0b9Y+ILo6lXGm4Nm0HQ2XArag5lgPc8oG+oi77p8248UODcYqNnpynfUiM7rc1fgS2roPig95j+XCYo6rWk/D2ShDBjY59zTJQfTE4PjhqD44P1xPRdg/Xw17b3+CYiKiOqj0Jl3pH8/b9UcPg+OCoOjhWPLBiNx7KcWhwPewbBsdEdGTs6PYtHSkMjg8O7pd02NTj+FH30SqIiGpx4sSJ/W4CHQDcDg4W/h50mNRre2VwTEQHwgsvvsgT8TF34sQJvPDii/vdDFLgfkmHRT2PHyyrICIiIiISmDkmIiIiIhIYHBMRERERCZafkLf97MlutoOIiIiIaN9ZrjnmcC5EREREdNSxrIKIiIiISGBwTEREREQkMDgmIiIiIhIYHBMRERERCQyOiYiIiIgEBsdERERERAKDYyIiIiIiwfJDQEj2Z3z5o38CfvwRLtrKT7n5s278YAkA/hve++VHuGj7M7780ffx4R+qWNzr7+LLj7+HBvnv9Cc48w7wi9V30KpeGkLdn+NbvyzXLmn5f/KuYrBN8XL6E5xZeEW9HI3Cb36Mix/+vmJzz7z3K/z0u9+oOB0RERHRQXT0g+NHixjdaMfNK3bFixlExjbQMdUPu+kHzXwDF72v4MxHv8YZEUyaBY5n3vsVHq7qA8Urn2iCUzPpT3BmQf3SZuILnHnvV5rAGCj85nMsXXkDD8sF7PmHePCHyzjb82OceUff3ovdP9G1XxXoXvk5Hr6tXbKyDT/Gh2UWT2TV5s+68QMYb2+li04AuGxwoVgi7ZuvlJ1GMWfDC8zCb36Mi396o+y2T0RER8fRDo4fLWI0sg2XXxsC2+HqjSEYvA+//xwaq51v2xW8h+9jMf29UpBbIXDcsfyv8cN/+AkeAgC+jzMiCpUC2KdY/PD3AH6PM0vKD8kZa+mvwr/8Dnjvf+Lid7+Bi99VTGYhcwwAWPpHzfz1zrxX1bciMrCJlSXgyicn8eWPunV3Wq58soqHb2s/U+6uzO/xg+4v9C9r99n0Ayy9/m2898/dBtu5dt+q4iKX6IjZXgkiGM+rXmvs9cPfU+F26m54tIjRSAZ2zxQ8p/d+8XQ0Hc7gOH8fwWAK7X4/zPfFDCJihzGaprHHA9dGEMElmyarbMU3cNF7GWcSmxhsqz0gNi1VMA201VmyzZ91Yx7A5s/+EUu6z0hZMOXfix8CZ3+5g5IHZo5pL6QfYOn1d/Fl2zfQ8PEqLhbfEGVBhh/6Bi7K06Y/wZl3vtAHr+IC8xWToHYz8QWueFdxse17uKgIvpk5JjJgc5WSS/n7CAaDCGKfAmSiOjucwbEF2ysxZGwu+E2vJG3o8biwEYxhJW8vE2SbaHsHD5Un2HJZ1TJBpbZ0QToRV9GOlX/CD/5wGb9YrXDiTj/AEl7BL2yAWZZNWVZhWDvMzDHtuj/jywUpSC17F0P7GYPteemdbhhtrg8Vrxe38/yvMb90GQO6jDQRVWQ7h/7eFIIbGWz31HA3didO9+Pm1F4ukI6D+gbHjxYx+tuT8H/nKYKRjPSa8uoSAJDHSjCImHxHRnf1GcN2a38pmyteQ68f/taM9L74aCw4hpj4t/qWTh6ZjTzs36mwk9rsaLfFsLGZR4/F6FjfyU68YRIAb/6sG/PfOmlp3jXp+Z94+HGlbPAmQu98AeCy6lWz28JyRlqp4bsf4eF39dMS1VV6CR/+AbjireZDiqxxjQr/8js8fP3bkK7tNhHq/kdNYK0uq2BJBZFa/mtlmUUGkbEYTvo9QEQ+39vgUt3tzSAytohM8TN2eOR+QCKWcDXFENsEGnv70b6xiFgepfIJOV6QP21UVqGZRrUMaQLzeISOtfpnjvMxBH/rgn+qH41i419csYvAVWyITf24KeqAM0tjCAYhbZC2c/D7gWBwEZFHU/CcziAiB8Y9NgDn4J86V7msIp/BRt6G9orxrg32dhtiX28DsBYct769iodvq0sWnv3p9zjzrTfw5Y+68aBHkXFNf4IfLF3GLww65dXmC13tpJSpNRmFQpA6613GFU0azSyzVpqv9VEqdHa7BpuOIPkirlZVjAaj3D7zv8aHH/4eeP3bigk0F7+aZVRzc4foyMvfR2wTsHvUibBYMIjGXj9u9tikOuXIfdj954qxQV68B4g65rHFUvCaj2Gj3Q//NyMIxhfx1DMFz8YYIhsZ4LQdsIl4QMxLT4ofbJ4pkzvIFeKROq8iOlx2oazCDk9xw7KjoxWIyMFnPoONvB0eRQc5e68LjcEUMvlzaLRB2uA9TzEaWUSkNYNMa39x57Es/xTbaJTmZ0Uuj22gxp3hz8hmgVecrbj48a+AH30fZz78b3jvk2/jwTv/ivd++ZGFXvJWGdccS5mznyPU3Y0fFm8T/wn/ilfQYwOe/ekV/OLts1hZeqCam5XMsXnGuHxATlQtqXb+XbyX/Qn+hDIXZn/QXNRpLsQqZXW1pUub//wT4MplnMkqp/o9PvyHbtMa+uoy20RHUD6G4Jh879YGl1/fv0d5R7exqRHIP0UeQOOjDWRgh0fxgcYeF+zxRaQeQWR27XD12IAVADYXXKcB5GzA19U1MyMH07r2W4hH6Nja25rj/FNsI4PI2JjmDc1WeLofntYxRDbt8ExVP9janhLDow18DBRv78ojS7z+Lt6rsIM9/LA08kTRlTdqaEgrBld/jlD39xH6L6sYfEnxztvvANjEiuYTVjLHJQyGaTf9GVm8iy/fPoOHP5Je0V+YWdsGy23XRcV9TFrue/8d+PAj5QTMHBOVZaEEwdak2IEUtcHbuW3A1qE58zfipA3YyOWBpno0UCqhiIwtYlSEHKryS6vxCB1Lexsc206iEYCrwvjC2ytBRHIueHpTiNQy3JrtJBqRwnYesFvZzptsNWeNv/zoJ3h45ef4KZSZrsv4xeqvcPZH38fF7p+UfTDGjjvkqbRicHVV+me+/JRAdTXHUi3oZfziY/XLhoEISyqoat/Axbe/B+DPO55TdZljsdz8rzVTMXNMtFtUWeTiq9t4mtcE1Dtmh2dKRORiRI1Ik6hNthiP0PG0x8Gx1AEuspQxHz7t0SKCccDlPwe7zW483JrNBhvy5h3pLHe0kzruNbZXGRqnH2AJwHvPpKzxL7wPcKb7H6Wn2a1+VOxl3/rxKi6mP8GZd/4JX/5XfRaq4bsf4afQv/awutaYe/0VvFTmbeuZY2kEAQCY/80VVTDPjkl00FSXOTbDzDHRrjndDjsWEVvJwy7O0ZmlxdIIU492YZk2mzonbCUeoWNrj4dys6FH6nFXvM0hvSxuz4jBvBt75Y528nBrixhdUoxgATs8HjtGI0GMxqVX1KNViI52lYaVkTvutVq/UpWywxA1xb/D2V9+hFYb8HD1HeMPtL2Dh6vqlyydvGWvv6v4w6xDnkE7/+V3eIhvG78pWMsci05OzT/Hw4+BUPf3cWblXXz58Rmr34BoD0jb6YOeX+Hhjx/ihx8B7338PTSIMY+1d2g2f9aNH/6m3KPOmTkm2j12ePwuBIOlc3i1I0XoHkQSGcMoFLGAbqQK8V6xc16FeKTGb0ZHw4nnz58/tzLhf/z7v+12W+qs1BvWeFByqafqRnt1g5Zv/uzHyP53OaNkNOSTiSs/x8O3T1ZXt6t8cl3+1/jhP/wrBrQd8r4lTvAiCCjRZr42Eep+gJ5fvoL54pP2Knj9XXzc/BP8SPMYX0sjWLz+buUn7hHplKsrLvNe+hOceQdSh9X8r0vBsWoiaX+FuChU7T+qzxg/Rrpy+4iI6Cg4wsExFI+P1g/5tr0SRHCjg1eIRAeKIvh8SfnIdHNn3pvH2ZUBxTCKZYZ0M7tok4Nj77/iotXh5FhbT0R0JB3t4BiQAuSNdk1NUQaRsQ10sBCfiIiIiBSOfnBMRERERGTR3+x3A4iIiIiIDgoGx0REREREAoNjIiIiIiKBwTERERERkcDgmIiIiIhIsPyEvP/zf/73braDiIiIiGjfWR7KjYiIiIjoqGNZBRERERGRwOCYiIiIiEhgcExEREREJFjukEdEtJv+31//L/76l7/gOHaDOHHiBF548UX8pxf+8343hUjlOO+XRwWPL9Vj5piIDoTjfAJ+/vw5/vqXv+x3M4h0jvN+eVTw+FI9BsdEdCAc9xPwcf/+dDBxuzwa+DtWh8ExEREREZFw6IPj9GwnZlL73QoiIiIiOgp20CGvgOhgL26sVfmxrgnEQm40pKYx9JUPty416OaZfXMdwx1Gf2ukpjEQ9mL+OoBcFEN9k0iYLNYZiKuXlYtiqG8L15IjaNNNncaMw4cF1WefqF4T72B87gLuXTVfLnxhJK/rl1CT1DQcn7VI60/Z2tlO3G7WfD+FwvIgXAHTFup450zWNxEREdERt4PguAHu0Drcypc0wVvZoK2jF81XA4i+FoK7qYbF56IYuprF+J2QFNw2uXEr6a70KaGA6AeTaJ5bx6nlQTh0gaMX88l1DKtea8Bwch3DSGPG8Sma75Ta7S4uV/9ePaUfLMAJJ1yOSYN3e+EIqF9RBrm6iwPDQFtcjNS/6UQ7k7+PYDCGbfFnY68f/h7bvjapFpmlMUQ25b/s8Ez1w76fDSLaoeOwTUvf8eB/t+PwW+yVHQ7lljbIpkITvCmDNifGi4FjG4bnmuH4IIpuTSa0olwUQ313cb7GILSwHMCNV8NIdgCFr/SBY3q2E7eXtVltC1JxLHRdQGwXAmPkorgd9uJacgS3NG9VyhwTHW4ZRIIxoNePm4cwIJZtrwQPxQmWyCpu0xAX7im0+/3Yz8MTf4v6qsM4x17My6UJZTPHUlZVpcOHcQSwmusGPlCUaKx1qgNu8bcUxALRDxSBcWoajge9lksXpBKDZswnS9MnAvqsq3lQbzpnRD9bgNMVry7Qtyj9xSQSvjBuwaxMQv0ddJliosMqn0ceNrS3Ht7AGADyX+eBVhdPXHRkHJdt2n5lCjf3uxEVHJffYq/s80NAGuAOhaR/htbhtlhzXPwM0pi5msX4Has1vQWsxpqlYF4E8vMuk8yxLhOryZL3deKGMmjOreLemhfXQrsQkOaiuB0G4Cu9pGyztr3p2U7c1szC+AJAm+WXeN+sU7uJdl0eK8EgYnn5bxtcygxO/j6CwadwTbUjNbaIDID6326s0Aai4+jRIkYjmdLfrf24eaW012WWxhD7ph/9iCAYl3aeqsulzJZhms2V9tWn35mC53Tpb7N9d3slWGyb7rihKfWKBccQE/+ub9kXjy/7oQ7B8QIGHOrCirJlFYC681zNHdYKiA76kA3EMdxkXN6h5Z1bx3BoBKWgegSn/nhXmpsuG1tqt1S722ZacwyIzC6AxCDgRRbN79er7liqj0aXc0dzYc0xHTbqE5Py5COfpMRJo6kfN/3ilPVoEaPBIKA6eWQQGcvA7pnCzdOiLm8pozpR165SGzKIFINyAFjE6Jj0r8NaN03HnYVt+tEiRiPbcPmnxH4o7SejS+oAeTseRNDmgn/qHBrz9xEMRrDSajXwyyCy0Y6bU/3Sn/n7CAYXEXk0Bc9pG4xnsY2neRtOFoPfGOCZwk3xd2ZpDJHIfdj959AIoLHHj5s9EN9HMyvbOfinzu1yWQWPL/ulvmUVZWuBFWUVovNcYXkQrhojsfRsL26sOTH+fgNKneWUpEDvnkubAZaC6gVfGMkmoKB4R1+KYDFYzEVxO+zEeKAZN2IteOP9Fkz2TaPFcCSMKuVWce/VMCaaP1WtK30mWFtWUfr3k2wCaN5pQ4j2VvHEZHbyyWewkbfB5VEEuaddcNmC2NjMo0cxsd0jZ4oA2zdtwEYe2wAad9rIim2wwzM1BUCceNFfp6CcaL9U3qYzGxmgtV+xv9rQ8x07YpENZGAvZV9tLvhFIAqbDTbk8TQPmES2+nZcUfxps6PdFsNGLg+cbsRJmzyvDCJjMZw0CF4be/pVxwB7ux2IPEUedTg21AOPL/tmh8FxG4YVtbvpLyaBQNwkY9qG4WTI6A0pi3lVkfc1qTmWa39bvujEwGMnasmlSkE1gFelv5WBo1npQfkyA5HZDcThfjmMG4AU/M9Nw+GYLl041KrJjVvXgcJy6aWGSyEkLylasDyISQTKllUQHTn5p9hGIxpVJzwbGpuA7a+3UTrDljJFgCLo3tM2EB0XeWzngMZ2TXhpO4lGpLCdB+zybtFkUwShpUDPKvXoDBJpftI+uJHLA9hA3gbkN/Poac0jj0Z0qMquSqURcjsODB5f9k3twbE2oC0yDjCVdOPodowgmRyBpXGOc1EMPZ5ALNSCz7Ud/CrJRXEbYcQC6ixs88sNgMGoFVYyx4XlAG5gArFLDYDyYSQdI5j3dWJg1npnQevUpR1Psgk0ny21u+36um5EC9Yc05FjdLI1OzEf5TYQHSgmwZthoFc7/egMUgnChtyKb0oLymxso93jwtNIBttNT7FtOylaZTAKjlH5xH7i8WXf1B4cFwNalC2nSM92YuDxhO7BFUbSs71SoFnuARRNbtwKAUC6+jbrsrAFbD0GcFb6y3rmOIEbfZ1SlhhOjN8x/m5t1+MYHwwgmqv3uMdiGLy+TmTnwkDYiebLZtOmcTdscEHCmmM67MRt1Fg8gx5xK3F7JYJY3g5PlbV2xfrmVpPbksUMk6ZTTh3bQHRUSOUJMazk7aKUIYNIJIPGXn/d8rL5r/OAraMYfkv7XakcorGpEdsbMaRyHXDZ7GhsCiKTayxlq/N55AHYmuQ5SG2sOnMsykG0pVxKPL4cPnWoOZbKChIAEsWA0Yv5Oy243ScNP5YMGWdOn2QTAN4CUF0QXTfFESZQOXNc7ERYekBIerYTd8+WC3wVo3HIc1wehCt2Yeffs2MEyTstGOrzSevYrA25LWThxPmXdrIwooPIhh5/P56OlTqh7P3A9wehDUQHzOl++HuDCO7aCA6A/Uo/7GOLCI6JJbT2w9O6WFwebCfRuBlDvtclda5rbxQBuku8fw79vSkEI2MYlV6Ay+NCPvJUzEA7SgQQGRuDfrQIOzweO0YjQYzG6/1deXzZLyeeP3/+vJ4zNByDVzcihRhdwhfGPHwYQC0jVlR6Gp1ZhzzRxuxbqmWXe8Sy5ccpmzzeWdXqGh/YIbdZXk/p2U4MhAHI6zAMGI3HnJ7tNF6/5TLHZo/rJtpF//Hv/7bfTdh3f/t3f7/fTSBS4X55dPD4Yt2OMsfFAE3BGYgjmdQEfqlpOBw+FIM3bCFbDJjXEVsehMNhHJhq5l7hYRzaId3k0SyMbGHrsRPj75eCxppHq7CsgK3HTpy/XHvOWF7n6vW8juR1iOy2stzjLWTDzorjQKt/Ry/mTfpNEhERER11dc8cUxm5KIb6tnCtHkO8ER0xzFAxs0MHD/fLo4PHF+sYHBPRgcCTME9edPBwvzw6eHyx7m/2uwFERABw4sSJ/W7Cvjru358OJm6XRwN/x+owOCaiA+GFF188tgfwEydO4IUXX9zvZhDpHOf98qjg8aV6LKsgIiIiIhKYOSYiIiIiEhgcExEREREJlsc53n72ZDfbQURERES071hzTEREREQksKyCiIiIiEhgcExEREREJDA4JiIiIiISGBwTEREREQkMjomIiIiIBAbHREREREQCg2MiIiIiIoHBMRERERGRwOCYiIiIiEhgcExEREREJDA4JiIiIiISGBwTEREREQkMjomIiIiIBAbHRERERETC/wf9awBuudFGjQAAAABJRU5ErkJggg==;" vertex="1" parent="1">
                    <mxGeometry x="40" y="50" width="711" height="193" as="geometry"/>
                </mxCell>
                <mxCell id="3" value="" style="shape=image;verticalLabelPosition=bottom;labelBackgroundColor=default;verticalAlign=top;aspect=fixed;imageAspect=0;image=data:image/png,iVBORw0KGgoAAAANSUhEUgAAApsAAAEPCAYAAAANjQ+sAAAgAElEQVR4nOzdf3BbdX4v/He2LN1t4YGuapuQKVx7s+xMnBXWmd6mYPmGJFam7nRdPZ1ZLiQIuQ7Zubes7DgD7UAYW/ZD4Gmh/ll673NDfK0oDgzMXLTeTt2J7ISM5aVp+8iKbpx5lmbthTYE2Wh3+bELBBY/f5xzpPNTOkfSiR3n/ZphiKWjc77n9+d8vj/OhpWVlRUQERERETngS6tdACIiIiJavxhsEhEREZFjGGwSERERkWMYbBIRERGRYyoabK589hF+mfkpPv2sknMlIiIiomvVDZWa0efvzWBppAdXfg7g1j/ETX/Wgd+uubFSs6er7Feff4bPr1zBag1WsGHDBtxw4434tRu+vCrLJyIiosqoTGbzi4/wwclRMdAEgJ//PX4Rn8PHX1Rk7rQKVjPQBICVlRV8fuXKqi2fiIiIKqMiweaVt/8ev/jnt1Sfrfy/UXzwk4/AQTyvTWth+NW1UAYiIiIqT/nB5meX8UH8FfxKm8X84gI+iZ/FL9l+05pMDB1CP9KrXQ5aPZkYOgQPBCGEWOYqLC/VD0HwoGMiq/pbCMWQvQqLJyKi60PZbTY/+dEkfnn+p4bfrVw4jg9+tA1f3XoTu70XlEXs6V4kACRCdYiP+HFpyIO2SPFfesNTGG51ITsRgi8MdE+OwF+jny4tzU+e/pqWiaGjRdxe1nnz2ybVD6E9isDoHLoa9FOK2zIBBCNIdroN5pVFLNSMvlmryw5gLHkQ6jnl52FWDlNS+e3SLid9RpxHYvESAFfub6+vCdf4EUJERGtIWcHmyqdv4YP4KzBvmvkWPo1P4Rdf9+Pmr5azpGtbLngxDDoAwAX/SASLQhDR2V70TjRhuHMOyU4ASGNACCKqDJaMbNuFAHrR1+LBot3g5VpT48dw0q/5MB+8FQuosxub0d0YRV+7B4tlBt8FA8WSgmIASKCvxYM+5UeNPYiP+MUgsOEgksmDmt8oAmDltGYyMbwoPcwEtrsBpDEt/Z0IN0MIG//MdmBMRETXvbKCzY9Tr+Ljn8idODbixn3/D25z34Qr6WFkjsbE9po/OY4P0tvwG9s24tfKKqocdKmti0wdAMCNh8NeRBf3q9cns4BFAEAt6swCTQCuGj+6kk2oDTWjr70fuwyD2utD7R2FjwdXjRv+kTnUDXnQFg4jtq1AEL8qijxYVED6ZSkIbuzBww0AUlOIAgiMRoB2Cw83REREFpUcbH7xiwv4YPrvFR2APsXKZ2LgufKpshfxT/FZfBIfbW3HLb9Z4sJKrDa81rhaR5CU/9BlxaJoEzTbQJfBcsE/Mgc/xGyqENbn1LRZq/WTqbqERcvV2iK3nD1O9UNoMTi+IkEIiqYMRg820XaP7gHIyPSQB22RNRLAKbKaoixiR6O5wPPYapWLiIjWpRKDzSv45T9H8UlG/Rk+B1YArHz+qboX+vIr+PAfd+E3dt0J+6MmSjdCALpq6FQ/Ot4uofjXgho/hpNNxu36dMG3mPVVVgm7WkeQbFVMsZ7abJZFqm7erGiPqamWLt5mM89asJ5FLBRFsez01ZLLakouTYTRN+tF96QfLnZRIyKiCisp2PzVT+fwwfRZzadXsPLZpwCQy3Aqv/v89e/jA08HXF8rZYkmGg5iWLrRq9tFNmNaUeWuDLBU040Cbe1RVYYwremYowrOjDKsBu3jVPNo7MGYr/Bq5MsEmLfrLCAF1Ia9iIabIcQttNe7llloB2mebfSiO7ofdb4AEA5CiJSwrQEALtRtBjALRM+k0dVQbA5S1rWxDpsMyq8vr0GbTbn85WZGdVnNBUzHxcBaPV99GdZPFpyIiK6mEoLNK/goEcWVDwy++hxYwRWsfPqR/rsPYvhlogU3/dE38Ou2uqa70OTzArMJ5KqSC3aAWMSLoaDqZp4IN2PgDu2NMoq2duXfxj2ME+FmdEDq8f32on5xs73whWAarGK2F21FqnddrSNIbjMKouSqYS9qNxaYQYMb/oYR+O/oh9AudTBar9lLw85B9rKRqHcjua0OHS29aBtqLj69AXdnBIFIEFFNVbs5L7qf8sNVA8PyXzU1dagFUBsMIBqJAqjDwyNz6NJNuEaq/ImI6JpnO9j8/PIMPvzhBYNvruDz1/bi318z/+2vEsfxwX88hKqN9l5j6WodQRyK7N9sL3xCr0nQmQB8U0iOuKDsVGSUgdJmLfukwE47RE4iPoNsq19XNZ3LdM5OYybjhx+KrFEu6LE7TA4Msncmma7ZXviEhXx2Tq4OzsTQIRhn//Q9jUvN7q0lWczExbX1XjwCQUgU75GdC1rTGBBMMqG6QFIZgLnRlTQK0myWfCKEY3eMiA9Cuf2u3ifyA0xlMoubUBuOwH/HFKKWgmQiIqLy2As2v/gIH5w+js8/LnFpn87g49Pz+OQBD75ic+BNOdBTVTnP9sI3VKfJTAXwSC6r58auIMSb6sUFZFUhlRc7t+VDkXzW0iCwm13AJQCuYlW4lxek77zofkBeljIza5FJ9q6oVD+EdmAseTD/e0XV/7qtBk1FpGA+gJ2+RSSsBPaZGDpaprFzciQfNCr2r+W2rbntq29PLLQXycKn+qVjOYTayREY7fHsRCjX1rYy+84Ff6sLSE1VYmZERERF2Qr5jF5LqZrZtkO45c/+Bjdt+4bpNF/883G8//aVkl9j6WodQTIZQUD+IDJVYpcGdWeNS4uFgsFFLGTSGMgFmgGMJeeQHA2opjKsZi+ZmHETCv6nftOMOCh3FG1D8hZRdK6Sh7iR5juQqmBRV1UaA3I72mAzmiz+Knt2Ggkk0Pd0/m05+Y4z8gNLFrGQ4g07hTTWYZOdYmdi6GiPolB1tfxgtTqdusSHLtXxNsTOQ0REZJ/1zKbZaykVNlRtxs3f3IiP374JBq02RV/M4ZP4WXzc1oTfsNQ1PYtYKAw8ZdJ+THeTj2I6dRBuqVoyV629uQ5i+GBsU60XEHNaxjf/TAwdAJQZLG1w6bqjVppHAqfOZsUMEtI4ZjAEUWFppHPBoFF5jMYclQflzmdV00P56vvAPj9cyCIWkn7XLmXT7LbJ+2IZp//73yB++au4+8ED+M9bvqKfJvM6/uZv43jnq3dj74H7UW8wyScXXsHAS+fw8UYfvvdf7kN1Sa+YUqyPvN7afmsmv5Or3cXtks8gAoA3HIQbiu03q2jza5bdlpt2FPxc2peQ52EeaE4PeRBd1dED2GaTiIgqw/It/pOL5q+llP3q9DO4/NdP4Gen5wpOt3J+FO9f/KjAm4e0tFkWRU9zg1frRdul6XJBgbJa25irdb+ULdVndNRZwCjapM992iCyIYjuRqnE4WZdWa2aHgpi2uZv5EG50bgLTTXq4Cmf1RTH4RwLyutZwrvYLyZw+tLnwBcf4tzr/4KfGUzyo9nTeOdzAB+ew+l/NpriZ/iX18/hwy+Azy+dRuKi3UIA2raw3nC4QGAkZnNzGcrMDE5J1e67GqCozhY/k5thuDvnEA97AQDRdimLXOPHcHIOyeQcksmp3P5GMCJ9Jv0nZ70bexDPfT4Cf438atIAxpJmwVwU0YgX3ZNz67ejFxERXTesBZufXcaHp2PFg8Nf/Ct+9fYcvvhFsQnfwqenz+Ljz6wsXGrzqGN2Mw5gTFW9bTVD40aXMnjQqvFjWDnfxh7ENdXoYjCnmUcwkgtYrIkiGgEW316w8Zt8dbnX1wRXJobeXPAk9YLOxNAhBcn53vJRtIViptleQ5u92LHpBuBLN+Pu+34Xv2UwyTcbd+D2GwDcfDd2/EejKX4Lv3vf3bj5S8ANm3bAu9lOASB1gFJ0ugpGCgdl0luYEuEwYhlFdXmwGW5lNTyAwOhB8TPdA4U+OM9njos/zOSJAX9S2ylL0140aRqIEhERXVssVaOvfHEFX3ysHTuzTB9/iC8spjZ1vcCLMXx3tJV55d/AY3W++uUYzcNO+eXgOI2BMGA+5qJaky8AzC6KnZ5q/Hgk2ItERPF7KcOWC8kyMXS0LOCRp6y2cpR8qQo7/qwXOwpNU3Mfvtd7X8HZfGXL/Xji/7rf3rIBAMq2s/pqZte2XfAigYTcqQvId9xq3IWmmiywvQfeSC9qt4vh3sNhL6JSUCmOeSm2ye1SLlM4gtrJIDZlAEBdlV44q1qAZtzWwOhcbtxYU1bet25Wpc+qcSIiWgWWgs0Nv34nbv0//ws+++/D+PzTCiz1y1vwFd9/wm/8egXmtV5cXjBpw2elzaYLrtaDqoA29ypGMzV+DCcLfL9miRno2lAzFvcZ9K6v8aMnPA1fWPt6TynDCwAN6t7+xR9m3OhKjij+9mM4WYcBIQjY7uGv3ne2RwgodaQCIiKiVbJhZWWl1I7ha4r6DULX+riRq++TX5h28bqqvvKbN612EYiIiKgMJfUBJiIiIiKyYt1kNqmyPv3lL7Dah8aGDRvw67/xm6taBiIiIioPM5tk6IYbb8SGDRtWbfkbNmzADTfae60pERERrT3MbBIRERGRY5jZJCIiIiLHMNgkIiIiIscw2CQiIiIixzDYJCIiIiLHMNgkIiIiIscw2CQiIiIixzDYJCIiIiLHMNgkIiIiIscw2CQiIiIixzDYJCIiIiLHMNgkIiIiIscw2CQiIiIixzDYJCIiIiLHMNgkIiIiIscw2CQiIiIixzDYJCIiIiLHXJfBZnrIg46J7GoXg4iIiGjduyaDzfSQB8JQOv9BJoYOoR9p5USpfghCCLFM8fllJ0IQBI/Jf5r5Gi0//w0GBA8GUvbXqVwMoAvIxNBhcixkJ0IQQjGUtOWMjjtDWcRCRsfM6h0v1ojlLlQ+y9vP8ra6StZaedadtX5sE9HVdIO9ydMYEIKI2vpNAGPJg3BDDIjaIvaWCABo7EF8xA8XACCLTQ/MYexlDwQhP++8LGKhZvTNBjCWDGOThWATABCMINmpnhMyMXS0LGgmTGM64kX3pGZaAEhNIdrYg3iDyTIyMXS09CJhsUgiL7onR+CvUS6nH8LROsU2KV16yIO2iz0VmddalT07jURwP4ZrdN9gJp5AYN+Io+uenQiLx+OIwTGjleqH0A6D47pEqX4I7TbP2NE5dEnHcJMvgL52D6JG54cdlxeQaKxDj+0f2rvmKMueJ14TFvcZfWeTdA7XGi6HCjI9Fg2u45kYOlqmsVN77UMaA8IR1Oo+z8tOhOAL27vKGh83RFQpNoNNN7qSc+jSfV78AgAA7s45JDsL/E4K7h4xudHqg9Uo2oT8xSshRI2/C0aQ7ITmptUMIQygsQdjvvyvshMh+Bb3G95YVctv8aBP+qd8oUqfiQKzgE/oVf9QdaM2CpDNiNvHqkRYWielxvUdSBakCu4TEOR9J2+TzAxOzQKJWY8mmBED/KazJjcteX9eXkACwCNFytAbBron8w9c09sNbmxyWRt7EE82ARkABc4lyxoOIpk8qPnQ2vkKuOBqPYjktjp0tBxB7IFi05vLvr0IzEb154YZTXBbPBiQAkpbpVJfP6wvi8zoAr126dxq7EF8xOBYNHyglx4QG6G6zqoYfK7ab7rrntkDh/gwQ0TOshVsFs1Mml0YcjcOkyyF5nfqoFEdnHnDUxhutR46icEjoAyU00MevFibn092Ytry/NTLV9zgMjG8eLEH8aQ6sEsPedBmee7lsbttAOkBQPF3diIEX3zXVQpQpQu9ozd3TXCf6odwVFr6y2KGali5bCmjAgCu1hEkW6F5CBL3uSDkf6IPWKRlpvohtC+qMtPuzikshEKIPZX/LNruETPiyTm4oD8+V12NH8NJPwCza0BCE0TqH6guLSZKOj6dZefBT6LYFqKrcQznXd3z077cOVPWdknjWDghBo8j+u+sPSgR0VpiM7NpFtCYXwDywV5e/gm0SGbT5KnXatWgNzxVQrVdKbKIPd2L2n1z1m4AlqrTAxhLNlekdGQg1S82H+gsPqmaC/6ROfileeiqvKXPACmbhwT6jB7CWvpRJ+3fq55JyyxgEbXYVeRmbRTYaGsnrAU/WSxcBFBbepGj7drss7HAvtKXQWtDduJIvjmS2bVec04xG020ttkONgFtVYkX3ZP7pX+rM5eVDvbcnXMYBoAUilQPi9mnU5CetCtYBkNvz+AUAqg92o/0iD5T4q3dpP5Alx0xk8a04t/arLC+StKgGh1AoQyOmHmNINm5SWrrCuQyVcptrA2QldWccvuq0V041d6LRG552jIryqG8iUiBhPKGoauO01SryuUeQxBtEftZ3ZkzUQQ2B9A7kTX4XS3qrGZNGuuwyeSzfJZHLzsRQu8EsLMRmqrfNKYjQO2og3krq+0nt+1CINwLnzCtbzdsyyUszgK1+0pfJzvV6PKxEa89oj6GdM0ltLUoeabHk7It4eXCx7A6C6xue212/GqP+3w5soXPT925pmnrbXqOVpDRQ7TiISEwGgHajdrfBvJNUTIx9IYTQOMu1ff5smoTGybNJ2Z7jZtsGBwD4hKIyEm2gs1csAftTTSNAXEKgzad+mBPl6UoUo1esE2cVboLoRyYBdBtGKDZcIcfwyNSgBSKOVTFZdZetlLEjF2TUaYqd4OdkzrZSFXJQ8oAMIG+o7tyVcEAkJ2YQu3kHJLKG2xI6tjUcBDJZLNhVZt4kw5gLDki3WCk5YU0DxiRIKZHte2ArWnqnIMfaQwIzRi4o7SsiJi5rCs0hSJAUMsFF/CKHXCUXxbqZGanfEU6ShRqPymWz4+upB+7hjxoezkNfzkdhGA9O6kO9DahVheQGxGPXyCNgXYgMOqGq8E82K+IYscwIkgmpW2W6ofQEgKUAaDu+E3j2OJ+JJNS3XEmho4W+fgsdn72AuEpJOXtluqH0OLBoqpc+nO0ojQP0fqsdxoDRh0e878Qa4iCASQumizDYlaebTaJ1hbHM5tG2YH807+UgfQVyiIYVKMD5k+uCl5Fx5/8hVB/0clOhHKTXVpMwFtrHn0adcKRq+5crSMYW/TAN1QnBWGFqg/NAxH7nXoq2NvWQPpl8UaWv0G44N8XQF/7FNKd7lx2JLBPXWZX60Eo87fu7QEgsoBLgPm6ZWJ4MeLNdajJLe+pHpxqmcZMxp8vR2MPHi66vgadQBrlnJ4bXZM96GgJISbfAK10+pFcWkwAm/er1sUoANVm5dJDHrwor1mB7Ge5jOdd5JwzILfrNQ9etW02oclEW31QytdIKNYCTT6DgLyQYATJYsdFBUd00MnE8GIkgLGkIjhvCKK7sRmnzmbhl7e77vh1o0v54FTThJ2NwKm3s0CDeSnTL/ciEYzkA00AaDiIsWAUbWfS6GpQdLTaV2B9Sxi5QEk8zvOZxyarP5SbT03W4dTmCIa3TyGqCjb157A2I83mE0RrW0nBpuFNTH4aL3hTEW86OamINCSMyeWvxo9hszpwXRWSvmrllMlPASCquQiLirctM+0gJHE/0ANvSxADRj2ODeiqBxUdWApK9UM401x4OJpMDB1PAz1l3VDFbZKIGFXRKyufvKjdaPBrXYBSpMLq8gISjbvQo81c1DRhZ2MvFi8j30t7c52F9TLvICTO149Hgr1oezqGJpsB/sJFILCvnGyfUScKhzucKM65QiMvKOUzVJrz3qADVCXU3qHeC5UJyLOIhcLAU4XLajpagB2XF5BA1LCKXvUAbHj86pvLqH6jY34curcHgKMLyMItLcf4HM0xHLngKpCbddT4MdwJIDVVoEwWq9EtXRuI6GqxHmyWNEakzIvu52vR95jxU7PR8CNaqqCs4WAutjWm6MShlZnBqVkvvAiiY0KT3ckNhdOMDkxheFvRYunV+NETnobvTBpdDWJrPu3Ns2zyTX50E7IwyRJKWYrAaGWqzOw3wJdumo09iCelcSwVnWfWEndnBAHhiJg1BYzbYQLIZaM3R5DcPiUFbcXnb1R97NUF7nKQ4UX35JxDPW2ziB2Nwhuegph3t/abmXgCXl9YcxylMdAuzsusrLbG1W3sQXykDouzAEyyVKa99ItmKeX91oO4aQGkaVBKpzEDJQw5Jj+YBUbnpMxs8YfmNS9XA6WsAVMr1hxFtd911ehy84m8S4sJIKIY6kxVHrbZJFoN1oPNAp1a8p1MCmdI/Lkn1EJVedJN12QQ6YI3MKNev9qLvpQ5i4/sxzG5vZ7UiSg7cQQJeOFtTCjWueAqGcp3Sqr8G3307Rn1xJsWKhS0uFC3GegzzAQXkJpCFAGM2c2qbqyDd1ZTXQ7kHhJ2PmVnZla50SU/vVzWfpfGgPSQlRAW0T05h2RNFrFQPmjT0WRVClWjA3IwGsCYo21ygfSQFEwVqT5Xnc+pCPpmveh+ShNqDknnqLKNoCbg04+rW7SEUGbfjM91s05wmjao8vXDqD2jwXILXXNsMzuGC5KC+vCUzYc68/MzfSYKbI5c3QxfZgGLSACXIVaja66/6WACbYZjZJq/WMHdGUGt0Awh3oMxn/SCBtMCiJlefRMuttkkWk22q9HNg72g8ZOkwRN+ekhqqzgrXkB0PZ6LXPT1FxKToZcMqqTTZ6Lw+qbggktqr9ePdPIg3FIvSG84gp3xhCKbkJ93oa4gxi4VzNQAJp0mGo37CWcnQuJwPUltACc93af6IQhRcZvrprHGdUctMKtuV+neHgDaNU0DMjEMnG1Cl9kNfGMdvJjGQgZw1wByJkydQxA7f6japMnV2i39qMtVf4sdBxLBiMFbgCpLmWURj3WvFGDmpykUtF1aTABQZ3CKZTaNglHtw5vVBzqTtcpn7SwG//IICukzUSAYUZ1X2YmQ9MCTL0t2YxBjm5vhC6H0dpCZBSwi34pFHawWGF/RNLMpPigYvu2n4SCSI+LrOPtmocgm2mV0DItNPvo0TTPSQ/1Ap1kPcCloXMyfeeKbp9TV6Ibnp9R0p0OZ9U31S8duRfubFye1eU60hwCDGM7+AwggPgxOoTbUjLawGJiakmqnyhn5IHePu55fiEFUYSW12dQOx5F7WtSOk2nS/lB1wUn1QxA8qnmbZyDKJDXcfySZD2x6wiEcS6Ux3S69vaV1E2bM69oKdhDSSU2J1aIF2knZqZ42a7uWbxdZgSpYqSNDmxy0yj3HRwFBFTQFMFZo+Ca5OUEuixHA2GgAUVU1utzRSNym8rZwd85hDB5V84rSj4tCHYS0xOyS3OnHpbsxKl+FanQTkrIqPnUlfLHMphH1cFnicEiB0RICh2IPcBeVbfry61C73WW43HxmPR80qdvl9io6yNkjvjXGoL0u5LEXdyFu69jWtBHPUbSLDEaQtPIaUVNGx7AL/pEpINSsyrZ6w1MFMnJyc478Q7s3HEF3Y0JdjW50ftb4MTwJdLQor02Faz+ckj4TlYa8C4vHhGoIoxLlmnB50R2uzXcWM0pkvCxex3tsPTgo2rLK4+8m/bg05EHvRNMaexEB0bWppGCzUlQ3qWAEyQcWVBfM0gbq1feIl9+pHntarE5TXoBdrWHUhprRp7hw1W1G/gKvaSNUsIOQQW9O8zZt+rZGOppMj9k6Qtku0ibtG4RM27sW6jxg0sTCKDhOapslmMy3WAZEX24zhToIGY0IYPYOc0V7zRFt8KX9fTk3J2WwJ8ksYBEBPGLzXFA2pzDKCLta9yMQDup7kktDL2UnjojV+4rOS9MRQB/AKx5yMjF0FO0gZzYSgxfdk/ogPp9hLj3LpO2oVnIm0+hYNzyGC7Qbh9nxa9Brv1U7D5P5Fhu71/LYvuVIYzrixc5JF1w1I0i2ivvZ2itKDYZEyl1PxSYmcqDubxW3dXYipJi32CZ00dJxYnD95NuIiJy1YtO5wYaV0Pffk/56b+W17zWs9M9Jf7772krI89cr5+b+esXjaRD/Gzyn+m3uc49yPoZLWun3NKx4PN9bee3doqVa6S823buvrYS+99qKdonnBhtWPNrPleUvWk4b5O1TaBrNsvPbT9zW8ue5bU5rmPL8kI9n9TH93ve/p97fnoYVj+YYee/731OdR9cPaZsZnLcqc39tPI3yXCo2D6qA91ZeG7zWt7PiOstjhqhiNqysrKysdsBLREREROvTl1a7AERERES0fjHYJCIiIiLHMNgkIiIiIscw2CQiIiIixzDYJCIiIiLHMNgkIiIiIscw2CQiIiIixzDYJCIiIiLHMNgkIiIiIscw2CQiIiIixzDYJCIiIiLHMNgkIiIiIscw2CQiIiIixzDYJCIiIiLHMNgkIiIiIscw2CQiIiIixzDYJCIiIiLHMNgkIiIiIscw2CQiIiIixzDYvJal+tExkV3tUhARERGZKi3YTPVDEPqRtjBpdiIEYUg9ZXrIwyCpArIAEG7GQEr8KxbyQBAs/Cfvj1Q/hFAM5nsijQHBI83fAau9/Bxx2+WXc7WWS0REtP7dUMqPsm8vAsH9wJAHQkT/fWB0Dl0Npr/GwkWgdrurlEVfX1L9ENqBseRBuA2+djUcxPAoILSHUDs5Av/IHPzSd+khD16sncJwq/l2zm5sRjeC8AnT6J4cgb/GbgGziIWa0Tdr4yeNPYiP+OGqxPIzMXS09CJh60de/bIyMzg1G8AjI9LfqSlEG3sQNz2GiYiIyKoSgs0sZuIJBPaNwN0wh2SnGHAs7isUYCpdwuKsF7VPaT9PY0AIImrwi8LB63Wu4SDGgh68eDYLfy6wtBbQu2rc8I/MoW7Ig7aX0/B3GoW0BeegCnBl2YkQfIv7kSwyv7KXX+PHcFK7dEhB6DR2Wgxgs2enkQjux7D4F2JHo8As4BN6TX/DY5KIiMga+8GmNguk/RsQM3JH6xAfyQcC2YkQfGFFDqrFgz7pn97wFIZbxX+rb+JiAEqFuTvnMAyDbTzr0QXvRkGSu3MOScA8U9iuno+4vyqXmV7d5adxLAx0T0qBbiqCvs0RJEfclrLDREREVJjtYDN7dhoJ1OIR+YPLC0ggioQghQPBCJLb9b9ztY4g2arPeqWHPHixxMKTmryNxaBtATsNdvEAACAASURBVI+oqt+lDHTubymQVwafukyhwTQWXFpMwFsbLjKVc8u3JTWFKIBuAGJWcxHdT9nMsKb6IbRHme0kIiIyYLODUBrHwuq8U/qMeJNNJucQD3uL/F6sgvfWbsr9vXARqL3j6mWO0kPqzjK5TiC5Tk9i5xD5e3VHJrEjScdEOtcZJ/f7TAwdRp1wYPK9QccYddmKdMBK9ZsuS6wWbjZs55kvzybsCnsRbTcoa1ks7lPHlm+HVGUu/zURRt/m/SW0XSUiIiIztjKb2YkjmmrZNKYjAezqFP8qntES22vufMql+lvfftMZ2YkQ2i72IJ4UO6gg1Y8B1RRRtAnAWHIOXYCUIWxGB9RVqYnwEeycnENSDkpybQTnMFwDyFlEYSiSz+C+vIBHknP5doGhZviG6lQZXlXZpCplIGC8Mg0HkUwelDLFgL7Na8Kw85ZctR4YnUNX6wiS22LoaDmC2AN2O+iYt7FVLsdYQOz0VNbyKyAVQR+8EB+RspiJ12JsRB2iJ8LNELSHdDCibo8q7QsiIiLSsxFsSm3bwgH0STff7MQRRIP7xcAMaUxHgNrRAhmt1BSiqMVYLkhbwCJqsesqBRmXFhPA5v3IlbDhoFR2mRfdk4qq5xo/esLT8MVnkG31538XVGe/0i/3AuEpxWcu+PcF0Nc+hXSnG24A7k5lMOJCk88LxBeQhRuuTAwvRrzonlQso8aP4dEFCO1W186NLjlItiNXdV0geGzXBo5ij27D5RXpQV/J5ZcXnKYx0L6I7sn9WGw5ArGzkz5grHT7VCIiouuN9WAzs4DF4H503TEldezRdqyYQhQBjDUAMBmfMH0mCgQjuSBE3QvYee4HeuBtCUKImAUrtajTfOa6oxaYXcAlIBcI5psBAHK1cSJikAHTZCXTQx60KbONjbvE/19eQKJxF3pWpfpW0S5SFTxKwxptjhTtVZ4nVkt7w1NwI40B4Yg4JFPB9ark8m2Qj+caaLLbREREVEnWg80aP4Y7AaSmxL9TU1gMh9F1uR9CS75zUKGwwN05h7EhDwQhgLFkEAvSEEpXjZxFS/VDaPGgryIZMlHBziFyL+tgBMmkuIWyEyH44uUvV0vXI11LMc4lAPVDgmo+YfTNBnTVygWlItJvXAAuWfxNBZdvh3w8W3o1AREREZWq9NdVNhwUqxcbDiI52QMvvOh+oHhg4O6cQzy8iDahGX2zAexajd67DQeRTE6huzGBU2cLv8lIzMYW6mzjQt1mIHrGPGjJnp1GorEH8UIZutlpzGQ0v3t70XjaYoIRJJNz+v9Gte0/pQ4y2vXLxNAbhqJJgfYNOwYyMXS0RxEYLVJ9nomhQwghlqnw8h2SCDfr38BU8K1HREREpFSRd6OnX+5FImi9F6/rjlrpX1FMlxJAqAIW69JDxV6xGUWbMpBI9aMtAgS2Fw6i3dsDQCSoDoYyMQxIPdmVVfHyd73K7GNDEN2NCfQ9rVi2dppiMjF0hGJW84nSb2Zwalb7kJDGQEsvEA6r9mfTvh4stpsEfKl+CC29qLU89I/UXKFSy3eQNzylD9qVmWEgNzIAX29JRESkV9LrKpWyEyG0RQIYS2p650q147oMUC4DNoeujTF0tHjQoRjUParrDKLvjy1mCktp4xhFm5Cfu77zRwBj+xbgEzz5T6wEUA0HkRwFBFXZAxiTx4yU3vKTW3ZjD8bCXiRy1egu+EemgFBz/q01jT2Ijwbgs9JBKBKEEBF7eG+amJb+Npm2sSf3T912lHvAq7aLuuNOQn41pvQbsR2qF92TcwYPGwksXgag/PzyAhKNdeip0PKJiIhobSsv2Ez1w6eq7tS7tJgAsD83vXrwaz+GJ4GOljBi28RprLxB6NJiAl5fGHb7CLs755DsLDJRwWFsjF/PWPx3Rsv2iwOwF5l3MlmosNK4pYrgLAvoh+aRpfohHJX/EMdM9Ybz21EcsB+AdrgfxfzSQx60PR1D00gdjglBRBXtUDVrjIfDXviMHh5G5+BCGgOVWH6BrZNQvKVKUwLrveWt4NBHREREpjasrKys2PpFbmibZkybvd1FCiplgdE5dKHYkDhGb4sx+8xKL2eb7A7ZQ+uE+fHE11USERGVz36wuV4x2CQiIiKquIp0ECIiIiIiMsLMJhERERE5hplNIiIiInIMg00iIiIicgyDTSIiIiJyDINNIiIiInIMg00iIiIicgyDTSIiIiJyDINNIiIiInIMg00iIiIicgyDTSIiIiJyDINNIiIiInIMg00iIiIicgyDTSIiIiJyDINNIiIiInIMg00iIiIicgyDTSIiIiJyDINNIiIiInIMg00iIiIicgyDTSIiIiJyDINNIiIiInIMg00iIiIicgyDTSIiIiJyDINNIiIiInIMg00iIiIicgyDTSIiIiJyDINNIiIiInLMDXYmfvedf3eqHI679ZZbV7sIRERERNcdZjaJiIiIyDEMNomIiIjIMQw2iYiIiMgxDDaJiIiIyDEMNomIiIjIMQw2iYiIiMgxDDaJiIiIyDEMNomIiIjIMQw2iYiIiMgxDDaJiIiIyDEMNomIiIjIMQw2iYiIiMgxDDaJiIiIyDEMNomIiIjIMQw2iYiIiMgxDDaJiIiIyDEMNomIiIjIMQw2iYiIiMgxDDaJiIiIyDEMNteR+VePYuBUdrWLQSVYOvUKnnj1zdUuBhERUcXdsNoFuNZ8PPkcfvY/l6S/qvGVFx7H16pWtUgAxGDl+Fu346HvuEr4dRanj8Rw8n3579vx0GMtqK9g+davN3H8+RnM5/4ubdtV72xA/fMzGDjlQtfOUvZhidKTeOIkCpfZyjS0Li2degUDyZvL3/fpSTxx8p3cn/W79+Ehd6kzk885XqeIrhXXTLCZ/eEojiaycHnbse/eq3gz1vhqy+P4aguA5Wm8+2jS2YWlj+Gdp4GbXnkY/0fB6SYxkAR2P1Tehbda8F/dQGdduAsPPXaX+E8pKCt5Pg9lMXA8huO/Xc6N2I4sTp99B9WCv8BxY2UaPTFI+VD3eXlBBinpt/HN2P3Q/dhx26oVyZy7Bc+6ATlQdJa0jDVxrIkP8qmv89pK17e1H2xm/xFHj84A3ibchRmwklhLDAZwZ9PavMmQdbfdg913XsDxs29gyX0Pqp1e3rtvIvX+7dhd6CZoZRpTzDw5Zf7Vo2JNxmP3X4fbV/GAR0TXhDXeZjOLN2IXsGXf49h379dWuzBrU/qfcPL9m7G7iRff9aC+aQuq37+Ak2nnlzU/cwFLd369YLBiZRq62t7E3FtAtfB73C9EdE1Y45lNF+7Z135Vl6hukwlg98O4/ZFv2ZzL/8by/cfwWe7vb6mrwqUq+BtfeBw3fP9xfCRVvX7pTx/HbS3VujJ8dP/j+AjqaWRL730I3PI7qF8nWc3zf9uE7+K/4Yff+Qke+5O/xA8BAA/gf8w8iq35qTDS9F/xUu7ve/DE//orfFtqO5v9+z/Ht0//J/wg8Ba+/ejLhtPklpWfieF02mkefGEGISer5m67Cw23XEDqvSwAfTZRzGhVojr6Tcy9dTN2P1ToIcXKNKWbf/UojqMJzzZlMXD8AsQjXpkNzVeH7n5PUWV8ZxOe/Y6iTO++ofg9oKtOfvcNDBz/NzQ8dD+qZ8TtBzjQbERu2/rQrTipKI9uXxUrb1EubLoFmE/+E+Z3GmeOxSp26Oabz4j+HpaOxHBpWxNwUmxzXL9b+W9FmW+5FVWqNpcG5dW0yXQmq61pW37LFnTtV9QAaLfryaP5Zi3FptV8v3TqFQz8+HfQtd+Fk7k22fr1ls9HWf6Y0rTlTsbwRK7VlWbbFNt2V+v4JXLQGg82r7L0MbyPIG5/RbrkLE/j3UeP4d1N6gCvMDHQ/NWfPo7bpd98PPkcfnb/MUDV9nIJnzz6OL70p4+Ly0sfwztPR/DT330cX5PbhVpos7mc/RC41eV8levV9NJ/xb0vPYD/MTOD5/FT/ODxP8Z3/3Y7fvhnWwH8FD94/Ax2zMwgJE1+/m+b8N0/eQG1yoD0H/8S38Zf4AczM3DJ0/zV3+He5/4ILogB6XdfUgSx6Rdw76Nv6QPNxb/AD2bE32D57/DYnzRhxNGA04XqW4GlrHGwWSlLp1KYv+V3sLtAgGNlmsLewfHnjyr+NghS3prBE2/djoce24d6KZg4/uqbqmBy/uRRzN/ZhGcfu0u68c7gePouMRiSgoaq3fvQ5ZbL/QoGjr8CqJb1IU4eP4pqwY9nv+OSbvDTOL2l0m0c38Hx45DWRyrLyUnMu6XgwXJ5C3Fhx/4mXHp+Rtq++u1avbMB9ckZpC5kseM2+TgSM6L1u1tQjyyWAMyfTGH3Q/vgmTmK4ydnxCDzR0dx/EdvAm5pH7x/AQMnb8+t0/yrR3H8B2+gXg7O0pN44uSH2P3QvlwZ5l89iuPPT1Y44HRhx/592AE5GNR8fds96HrsHhRts2mwD+ZfPYqBI1AHpO9fwMDzN2P3Q/vw0G369V469QrmvrkPz35Hmj49iSdOym2u5ar+Im02LW+7q3X8EjljjVejX2Xuh9VBZdW3cOM37M3i48l/wGff+APcopjPV1v+AF/G/8anmqpRVZbS7cGXsYRfXbaztCyWfm6vfNcGZSbza7h3xz3A4k+k9rpfw7efU2Y5ga3eB4znIQWWALDxP9yj+vbyT94AHtyen497Ox7EG/iJvP2X/w5jL92DJ/48Pw9U/RHaHgReSpwvew2L+nlWkfnKq//OPjz7WLlZzSzmf/whqr9+V4GHFCvTFCMGKM/m/jO6MSqzOC7Uf/1m/borM5m33YWGW4Dl98SjYX7mApZu2YLdiu1RvXMXdt/yIVIX1C28VZkg99dRjw9xyWgjl+VmVUe96t++WfWtnfIWdpe0bZtQLwUiTzw/qRgV4S7sFm7G0o/fzG/L9I8xr1k27mzI75M7m0yOK3WmTWzq8W+YfxfItxlvUO3b+u80oR7vYO4qNAexS2waol5X9TrJ1EF8/TdvB97/OZalb6t33q/eXm67zU3sbburc/wSOYOZTRVt9bfoS16bs/nXf8DP7v8H/Ezz8Zc1f//aJuVt/FuoeuU5mwsSs2Drzu/fiY2KP11/+Ff44R/m/87+/Z/j28++ofmRUcBpbuN/uAd49gzO/9lWKbN5Bi/hHjyhXDDewLN/0oRntT9+0NaiSuNktjr9Tzj5/u14qFAVnJVpKuGWW6EcOax65/14dqd6kmqXsgz57FaOybbSZoerfls5n1XsZGKxvNbI6yFm85RZYTm7eTJ9Dx5yS6MKfP33KnRcSYGOFCSp91HesklzkFX31gye0PWKv1n3d7Xy4SjXo16iaw4hsj3smcVtt2aOX6ISMNjMWcJPDx3DZ6o2mkv46aHncMXurL7xB/itw7vw1QqX0EiV62bgx2ImaF1VpZtJv4BvPws88b9m8u0v0y/g3kdLmdnL+G6TeZtO48+cJmarq7/u3A16/kfi6AUFOwZZmGatM7uJr1XllfcueO6cwfzPldcC8bPjP3oTqM6WMaqAkZuxycIFRx0grSHadr+2vYnjxy8Agh/P7sw3U6jksE5rdtsRlYDV6AV8PBnBJ/9q7zdf/V0BX/rXf8D7kxWo39i4CV8yqH5Xqv7tmwFd9Y8zlt/4v/Hac9/Fa0dP56qS1N7Dvxz9Ll577ruYfOM9k7n8fzjznDjNGZvb1th5jOQ6AVn/zYln38CDL8zghzPyf5qgsupebP/9N/DsX/3d1R1u6903kXr/ZjRsMb7RzL96FE88X8abot59AyffKjJ6gZVp1oj6b94OvDWD44pzZOnUNE6WGFjJ2/e4Q9W/lS5vzrtv4ORb0DV7qG/aguq3Uhj4wQWgIr3Xszj9gwtYylX9ik0flpLTOK24Bs2/OqOvsrfkTRx/vtx9IHWg+pHxG7mM9kElzL+qfLlDvizVt0LdnEHxXWW3HdHateYzm29+/znEfqT4IDGKv0oAcDVh377fr2AFTTW+9p+/hXeePoZ35B6Mux/GTbuP4Ze5acRMpzIA/eTRx/EOFO0vq3bhtheAdx99Du/8T+X8v1V8cHatql245U+T+NnT4jIAfW90uH8Pu8/GcHLmTewo60n9GuF+EE/8/h8rqrfvwRMv/AXuffStIj9U2orQCw/g3keboO2Mfu8T38fzf/g1iG1Dvw88/sf4dtNfqqZxskf60oV/w1KB0QXEG+U74s1rp/2xOIvN3+o01mg7CDkwqLu7Bc9iEk8oex6X0RO6ynUz8NaHmHdqrNNKlNes+tZo28pjt75VWpMIsc2pej9Wq7J5YtOHLryCgeNHkVslTe9uba/tXE9xOxlG3XpfwMDzF6DvIOXCjm9vQeq4oqpcWR7DfaAvc2F3YbeQwoCil3m10ITdP5/BJc2U9d9pEt8O9vwF6ZP8/ray7YjWgw0rKysrVid+951/d7Isjrr1lvXYuFGS69FYas/E6+wtF8t/h8f+5C9xpzZoNOiRbku5r3VU9JI1D8ikIVVKuiFZebPKWnr7ymqQtm/Z1axrR26IqXWyPkR07WE1+nrgbkGXAJw8PmlQjUNWnU+8DOBO1K7Ku+7zbcAKBXlLp1LiOIjbSsh8pH+MedwOT6Eg0so061hu+35zfQRmS6deEbOaDDSJaBUxs7mOzL96FCddpWQnNYMlXwevGTTs0f77f4EfKIZLskYzeHOJ227p1CsYyDYUyD7Jy1nD77++luWqaNfH9s1XW6//c5mI1j4Gm0RERETkGFajExEREZFjGGwSERERkWMYbBIRERGRYxhsEhEREZFjGGwSERERkWMYbBIRERGRYxhsEhEREZFjGGwSERERkWMYbBIRERGRYxhsEhEREZFjGGwSERERkWMYbBIRERGRYxhsEhEREZFjGGwSERERkWMYbBIRERGRYxhsEhEREZFjGGwSERERkWMYbBIRERGRYzasrKysrHYhiIiIiGh9YmaTiIiIiBzDYJOIiIiIHMNgk4iIiIgcw2CTiIiIiBzDYJOIiIiIHMNgk4iIiIgcw2CTiIiIiBzDYJOIiIiIHMNgk4iIiIgcw2CTiIiIiBzDYJOIiIiIHMNgk4iIiIgcw2CTiIiIiBzDYJOIiIiIHMNgk4iIiIgcw2CTiIiIiBzDYJOIiIiIHMNgk4iIiIgcw2CTiIiIiBzDYJOIiIiIHMNgk4iIiIgcw2CTiIiIiBxzw2oXgOha9avPP8PnV65gZWVltYtCa9iGDRtww4034tdu+PJqF2VN4flD6xHPd2PMbBKViDdKsmJlZQWfX7my2sVYc3j+0HrE890Yg02iEvFGSVbxWNHjNqH1ise2nr1gMxNDx1Da5MssYiEPOiay5ZeKiIiIiNYFe8FmTR1qI0cQyxh96YJ/XwCJ+AwshZupfgimgauz0kMe9bIzMXQI/VCVJtUPQQiZrOsqSvVDCMVU2zg7EdJ9ZnueV3FfZCdCZS3P+Pfiw85AChXdd+khPkARERGVw2YHITceDgO+l9Pwd7r1XzcE0Y0wZjJ++GsKzSeL2NEoAvsOioFeSy8SZpM29iA+4ocLYpDhC5tOaS4YQTJX3iw2PTCHsZc9EIQAxpIHoV6TLGKhZvTNBjCWDGNTJYPNYutqyIvuyZH89mw4iLHNHviEBYOylya7sQ6BSBAdtVMYbnUVnDY95MGLyulS/RCO1kn7KI0BIYiodg3C6vm6WvcjIAQxsH0OXQ35+bZFjJZotI+MuFC3GVgEkN0YRDJ5CQOCB4Ji35svI1dS9bYmWkOKH7/mAqNz2HWm9N8rr6HWr8M8n4hIZLs3ej5QmELt0Wb0zRpM1OJBn/JvRcAIAOmhZvRtjiDZACADmAYUqX4IR5XLHkGy1bhc4gWwtmBgor9YR9Em5EOjhBA1/k4VrJbLavAEAGkMCEd0n7o75xCvDaF3IovhVhcuLSYA7Co+t2I3q3AzhLD+YzFYvKQIJPXT+YRpdE/uh/YGkx7y4EUA+SBe8aN2jzi/YARj0AelYnC+UHS9lBbfzsLV4ALgQldyDl2K79ydc0h2ApCCYozmg928Qt+tHUunBzE4VY29h/egvpwZXTiBJ8fnc3/W7z2MvVtKndk8xg+dwDzqyy8X6eSPX41MDB0t09hZLLBrMPl9bh69qLV63Guu6XrG1661QzxWl5sP4MCOqrLnkzuDtu7BMw/yyCfSKmHoIzceDnvR+zbQNTIHv92fp/rRdrEH8ZFKBW/26AKaIrITIfgWHSwQkAuqHrGRqXS1jmBY+cHmugIX/jy7658PFt3oSs5hV7HMpnmJ4R+ZQ9NECL7F/brgPT0EJAyD3QAeEafQZE0TECLi99rgXZ95UU6TRSwUxGJ4CsMNsH6jtkEMBJcVn1TBd+AAyrqnOWXLHjxzGJBvms6SllFWQFspyzg9OIhzd5cbbKwBlxeQaNyFnpKP3yxiT09j5+Sc9XNgthc+obfIRF50l1Kc5dcxOBjHkuKj6rKDQqfUY+/hwwCA+ZcOYXyVS3N1iOdOfFn/jfphdW2dY0unBzF4rgEHDtyH6tUuzHWopHE2dYGOEaObeKofQjswlvTDJQdYk3XQZhhVGns0H0gZss1lZBtT/RDaTZan4A1PQbv01VQ4MxmUgi89uwFmMbqgULeP7Mpi4WKxzKY7l6nMKgLW9JBHc+w0ozc8hWTSeH1zWXV5OTV+DI8uQHg6hqaCmRpr5l86hPHz9dh7+MB1mNnL33jp6kmficLrmyr52E0PiTUO3rNZ+K1eJ5zKbEqZ9vq9h3Fg1R9IyFgVdhw4jB1gAEfWWQ82le0NcxcaMfA75dMHM9mz05qn7SxiRyFlmLKIPd0LhKfgxgysVqOXy905JwbJKRS5WErrBanqvnJFkBi3bVRX4wcwlmxWfW9cjVYo+M6vh/x7cf2V2cjCcr9RUAWFun2UQJ+mGYVXEZiKVf61ivX3ontyPxZngcRsocymefnkbSIHocpjMT0UwsID0gNPql8K1o0D896JJgybNNOwZh6p80B1s+86DDTJeQZNUXKMm8AAhR82sxMhTG+PIBAJwlYFjkOZzflz80CVDz4GmkTrivVgs8aP4aRfE1y44B+JYFFohhBXBG+ZGHrDCQRGRxTBjAv+kYMANNmltdbb+6pwq9sTmlajpzFddF6XsDgLBPYZZXnF72r3lZDzSPVDaF8soYG/WZtNAEhjWgrydinWPz3kQZ9R8F+ozWYkqKtGd91RC+UdMzsRQtvFXYgrOlclkweN55eJoaMlgnRrs/H3llTj9ipgfiqO+R3GbRbFKnboqtXzGVEflgYH8c7uPcC42Basfq/y34pqqqrbUaVqc6mvrhfnqyiAI23KNNVqVT51pkNbLTp+CE/CeFptEwRt9alYVbkHzzQvK+apbyOqXe/8fDRt7KYG8eSU/IdmPpr2rNrv81mdKsRz83S+yUQg165SDD4X95n9rT3/NFL96EUYww2Xcs1frLR9B+BYZrPqtirgfBzxC/cZN7VQZD6V3yvPq/rzgxh814e9OCEeA1v3qP6tPP6raoDTg4fyx672/NBV6Tu3f82P2dwU6mNXNY10DkJz7sm/kdYrd8zufgeDBa4bRsuy3p7bxjmmW47m++XXMTiYwt0HDqB6Kr99tNtG13RJsR/V2zWOwUNx43Uquq/zzYB8GcXy2E7Xkgq8rtKNruQUakPNUg/pIBae7kUiGBHbxGlkJ0JoiwDe8CbFp3aq0Qsxmo9Jj0gLT+Zen41FlyF7dhoJJFCbOgi33U4pqSlEEcBYQxoDwhR2ldlDPVdV39iDeDJo+DBgWo2eWcAigFrTubt1nXbEbGNAbFqhLQMABCNiZlXbk9+s09bFBWThBiZC8MV3Fc1e527MNX4MJwFrAb6ZKuw4sAfvHDqB8UOHYHQRr97hQ/3UCZw7v4wduS/EjGj93j2oxzKWAMyPx+E7cBgNU4cwPn5CvCieO4Txc/PAFunCthzH4LhYdV0P6aI6/jrqpZvN/EuHMJ7x4cBh+eYjXiyffKnSF0dttZr26/tw4PB9KNZmM9/pSW6CMI/xQ4MYhOame/4Enjwvr7d4kx1/aT63TkunB5G6+zCeeVCa/sIJPDk+iPGaw9i7Ra7qL9Ke7MIJPDm+BN+Bw7n9N//SIYwfOqG5GcYxeKgKvgOHsbdKvw/WrFQ/hDPNSHa6AFzKfexqHUHyjn4Igsc0oCzUUTPPja7kiO1iVe84gL3vHsK49ECiC7i2+OCrmkdceR5gGfPnllHdLJ5rSwBw/gTizQfwzN1xPDl+AuNb9+CZvefw5Pg5zKM+t//mxwex3HwAz+yokoKNExi/IB2fUvBRpajSXzo9iMHBQaDCAWfhY1Zcx9ODJ/Jl1anCjt31iI+nML98H6rlSS6I67tXFUDHMXjShwOH9+SvE8pjVg66Sg6iLJ5jik5a8jotnR7EoPYcwzLig4dQ3XwAzzxYJW2bcZzeKu2DCydwAnvxzGFpGdJ+HDwtLrf+wcN4BkWq/G3s6/nxQ2Lwfrhef8yQqQq9QUjs/DEWjKJNkIYNMggE0kMe+MKAt1H7TQBjyTnEw14xiEjOif+NBmyWQ5xPUvWfSWausQfx3DQRBOBF96T89xS6dWV0ShrHwgkEwj1YbLc7pqM4hBSCzXDDjYfDi2grYbzN7EQIguCBIHgwvV3aBiN+uOCCy2DbecNTZewjDSnbqDxa3J2K/ScfRzV+DEufxcNe43ltrIN3dgHHhjyGgaZyPQVBrI6MtnsUn2nGWi2JeKF95rAYOMYHD+FJzZO7r7kKS+fm80/QF85hXlt1uNWXv8Bt3WNyIVNnAeqbfaheTmF+GcDy64ifB+p3Ky+s9di7tx44f06VsVgb5hGfWpYCbpnBtpI+z693FervrgIyy7lpqnccUG+vLXfbbNawjNMn59X7AED9g3tQj3mkLiinVT9Q1N9dDyy/A4O+E2tGesgjBZomj6UNB8XzKzVUVwAAH81JREFUzDcNn5Afkzg9pDxX7P03kLJevvoHD+OZw4exdyuwNDWIJw8dwnhum4tBleoYXp7HueV6+FQBjfJvTbCloApmq+6Db6tUlQ+xhmJJc15W79gLX9Uyzp2v7B62eszqzwXlb3y6ss2fmzdo1lOPvYqAq+o2dSAor/cBh7N1S6fjmK/yYY9iv1Xv8BmcY5r9tOVu1GMZ78iruWWPOpitqsfdNh8EbO1rZRAuLWs5s5bP+LWhAplNmdjJQxTFixNBXWePFy/2IJ5swoyiHaGSOKzSEcTkNnYNzQjMBnEs5a/sMDQNB1H4oVsMnm33tLdNarsZjCDZ6ga2AR0tzRAWLXZ+SkXQN+tF91PitK7WEYwteuALQQy0MgtYhBc7Nxr8VpHZ9RboUGNfoTabxm1VC7MxVl9NE3Y29qLvopWMjL7KUS5j6ZlNJfnpXnx6V2be5OymWFUoBjbVd/sqlAmTLsJVAFCF2w0vuktYWgbqV7+DqM68sopdpi1n1e2qj6p3HMAzOxQfGPRmBmC7HW31bcZ7ZDmzDGyRS1CdzyIBit79a5HiemPh+iKeL+J5IoR6EB/Jt4/WjrebNRllohxyRkrMvJ3AvPyAscUHX9Ug4qeXUb+jSgwUtlZwqC3FgwtqqgzPy6V3l6A/MMtQ9Jitwo4DB4DBwXw1sLa5Si67KTXjWX4d8fNVuLu5hHKarHfFLaurtWXafVlVo36QUHdE1Ff5A7Bffov7Wn1dyNfqUGGVCTZzVZxS+7lUP4R2TdBU48fwCICCebf8oPF1CKItIrZPenhjFii7n7CoYI9u7figgIW2SaXJDc/T2IO4chtNAh0tQQgXexAfqSs0BymrGVEFYu7OKXSHpIH1Ly8gAWCn0c8trZeiA9i2GUU1ttE4mwvoDi/mjwHpc3WbMYNqdHEqDAhHUFvO8EPKavagchio1R43sx4NW4F56QZWrfhs/Nw8ULVskJUph1mAqaQJkNaQ8sb5BIB5jA/GAVV1Y2WHdVLf+K4V4nmwGJ7Kj8RgicGDdyaGFyNe7JzUzCdi3PEuUOa5V393PXBe+YAkZrPj5+axtKMKqfNV8B2oYBZOCjoK5arMHkRKY/WYVQY2YhW1WMurCDi33I16nEDqAlCVSWFJk51fc3QBs11i84J5VZW/VH1fmRJWeF9fv8qsRk+Lb2lpEdto5qpDGw6K1auRoO3XKLpaw+i+GEQbxOr0rgbAVVPZUE9VDWxYjV6kijgTQ0c5r0NM9cMXTiAwKldXK9T4MZyMIDA7jZkC8xeHKzFqruCCf0QZtNWiruTx96QORne4FNXYU+hulLbVaAD5pgtBIJ6QqvQLyMTQoatmCyIqZUTVn1vZxuJrKoUWcZzAZFLsWZurtpOyu7VG2V1DUkBcqcBUqs6uvrtedUGtb/ah+nwcg+NxoCK915dxejyev7lU1ePuqmXEx19XZEvmMT5uVK1mxTzGDx3SVGnaJXWgOmdUiS8F5eP6DEW55l8ymmcVqmvMqiXFYGZpahynFRHH/Esn9M0dSiIes1f3NajicV2JIdDkNuanzmrKr2wCpfivvHNJatJQ1aDKxFfv8KF+OY4Tg3HMVyqgunAC4+er4GsWzw4xyD2hOt6XTo8jXtLD4TJOD4rnz+Dp4lWuxsesktR8REdsejJ/chAnppBbFzvk9bZSzsIKnWNA9dYGVC/HcaLs5aiJ+8hgeTXVgNzMSKOy+1pJuj8pmqNcr+xlNjMxdLRHAXgxk2kCng4iapYhaziI5GQdOlqmLby+UjH/lgU8kowgIFh7feJq0A/rZFOhXtEA8o3rjQdJFztZedE9WagzkJT5bOzBJqOvZxdwCUXyxdpqeCl7iHBEHH+04SCSo/0QhH50hxdVVfqm5FENVErMbObKM4XkiLwmbnSNBiC0h8T5FRnwOiq/xQiAvbc7GTCrCjPK1lXdB9/WuNgDvYSLWXVNNeQAMPeZKjNiUO0Gk97dyt7qcjW2nc4BuvWWq8a0HaSqsGOvD+cGT+BJudiKzEb9g4ex96VDqnUyKnNh4s12UNEDtrp5D3yZE3hHO+WDe1B/6IRi++TbglbvOIADGMTg4CHktl7ZWRhJZganZr3Y+dTau7YVlYmhNwx0T0aw2NIMISyeM4bXGNtMBgs3PBbl/Qz49pbyqCaPHKHtKa0YH3fLHjyz9wSeVDXtKDZigXxs23mLlpVj1qiquB57D+uPR7mZzvzWPaUF4Vv24JkDr2NwULltlNcx7X7KV4Vrr3WFzjFU3QfxEqVejr1tJzcdUFxTtu7B3q0noKuc37IHe7cewrjinM6V18q+LkF2IiyOvDOyCbFQMwZSa/vNdE7asLKysmJpSrmaMhhBcvsUhPZoidUjmrE5Vb2Mle3zlO8ol6vm7bX2U5LLqnu3NwB1sKNuV2g0Rp3xPCwo+93o8jYxasdo1B7SLHgqNF6fhty+q+Dr7DTBouE+LaW9pno9oGgCUfTYUxwv4j6Efp1N2q6p30Bk3mb0k198VNLayHLD+HDYjOvCV37zJvEfNsa5VSs21JHx30bjIKvlq9gLTmdwDbD6nnSj62i55w8HFDezlt7Udf36ym/epGjLvMmkj8D1w3qwiTQGhoAu+eZsK3DSB0zyBVC8WMH0hl7s+8qwk1kro32h7ddSKpclBYhwpg0p2VfOzbJi7zana4YcbJb8sGraqU1D9WBupYOdlWDT4rJtKCvYzA1NtUZfA7tqpKxjDR9iV5t4viuSLBY75q1XNoJNIlIq5WaZr7Yuv4qGri25zCYBKO38yQ/e7fzg+dcWRTU7BxlfE3i+qzHYJCpRudWAdH3hzUeN5w+tZzzf1So0qDvR9WfDhg2rXQS6RvBY0eM2ofWKx7Yeg02iEt1w4428qFBRGzZswA033rjaxVhzeP7QesTz3Rir0YmIiIjIMcxsEhEREZFjGGwSERERkWMYbBIRERGRYxhsEhEREZFjGGwSERERkWMYbBIRERGRYxhsEhEREZFjGGwSERERkWMYbBIRERGRYxhsEhEREZFjGGwSERERkWMYbBIRERGRYxhsEhEREZFjbrAz8a8+/wyfX7mClZUVp8pzzdiwYQNuuPFG/NoNX17tohA5ar2c9zxniaxZL+c8OcvONdVWZpMHX97Kygo+v3JltYtB5Lj1ct7znCWyZr2c8+QsO9dUW8EmDz41bg+6Hqyn43w9rQuRU3iekFVWjxW22aTKy8TQMZQ2+TKLWMiDjonsVS0SERERrQ4Gmw5KD3kgGAZdaQwIHgykCvw4E0OH0A/jkE0M2Ar+vlJS/RAED4Ri5VWqqUNt5AhiGaMvXfDvCyARn4H9cFPcbsbbtNIMguJMDB2hmK7c6aEK74tUPwSD5ZQ9T9PjiXJS/QWPr+xEyPR78/M992vb5216yIEHMyeOL7syMXQIIZNrROnK3V7Gv09jQCprdiJUofPI6Fgo8CDu0PYiulpsdRAiO9KYjnjRPenWf5WaQrSxB/EGi7PKxNDR0ouE9vNZD6KqDwIYSwaxEAoDT43AXyMvrx9Ce1T7a7XGHsRH/HAhi1ioGX2zynnOwWAtCnDj4TDgezkNf6fBLxuC6EYYMxl/vowWpIeC4vpGjiD2wIit31ZEjR+PbPbAN1SHpLxeqX60RQLofiALwFWRxWQ3NqMbQfiEaXRP5tczPeRBW8TgB7l9ZzpHxI5G4Q1P2dyP15/sxmZ0XwxCEAIYSx5Ub69UP3xhGJ/TSGM6AgRGK7mFs9i0vQdob0YHpjDcaraHteesJBjJH6dOK3SNsVQOcR0W982hS7ouZidC8C3uF39rcg0MjOanBwD3Az1ASxixbfJ5Y7JtAAvnjWwTahulf24LIzk5gw7BA4TlfVJgGfmS6o8nrcwMTs0G8MiIvkTZs9NIBPdjuOA1L40BIYgiV3rR1Tw2iFDJYHP5dQwOxrEk/13lw4ED96G6YgtYBRdO4Mnx+fzfW/fgmQfri/5MFRS0eNAn/VO+MKbPRIFZwCf0qn9ocAGYHuoHOg9iOOlXfKq/MCtt8gG+ln7UKS9uhS6sqX4IR+U/XPCPzMEvf95uMK3JTcUbzt8QXa37ERCCGNg+hdqjJhdixbYpVsbsRAhtES+6J0fQdDYE39MxNFm6UVSWuzOCgCAFu4ihox3FbyI2uWrc8I/MoW7IgzZNwK7cxgA0+w4oeOObbYYQLrRkryq4XVPk64vD1xVx208BoWa0DTXnz8dMDB3tUQRG54y3T2oKUXjRvVH8MzsRgi8shkaB0QjQrggCcg+J+QDE9EFCFjbed+LxAGk5+etBesiDNhvrXREG568YMEp/pPohHK3Tn+PKQFL3AJ2AEAlgbLIO6oBNugYCMAqyEtK1xRuOYCf0Qan+vCkmgcXLgL/BBcCvuR4rrpmZGDpaprHT6Dwy/U59ziYEeU3k8zGLmXgCmE1A0BwjuuuB0bpqqPbJmrOM04ODiNdYu9cWnc+y9Ge5142rdP1ZzyoUbM5jfDAONB/AMzuqKjPL1bb8OgbH51G/9zD2brH/c/VFQHFhzMTw4sUexJPqC67xzSGKaARYrG3GznhQH0BoLszyMl2tIxhb9KBNqHwgBMDwppIe8uBF1URuPBz2ovdtoEu+EJcq1Q9fOJG/0beG0R1vVmcYK0Zz45ICtEC4B4thRWZFESjnbg4Vzha4O+eQzP2VxcJFoHZ7sfBaceMDIK/PosFNaV25cAJPjgN7D+9BSbcoo8zZbFB3c0+0K845xXmQPiN+2tfiQZ8UJCSTaQwIR1C70Q1/cg5dyofEjTF0tCyo5m0UOBSiP+e0FhALGVw3JOLDrgMPGIqg0pIaP4aTTUUzm+bc6ErOYdeQBy/WardhFrE4EG3XBrEAGnvE/+v2vRTYm1znVA8FqmnSGGjpRa18nZIe1q1eg9VBonjsAABSEfRtjiA5opyLeCydMpiP4bpqBfdbKJHWPMYPncC88iOLCZirrwo7DhzGDgBLpwcxeM7hxZV7/akocT+hxNjFKZUJNi+cwzzqsXe9BJoAls6nsFTlw56K7qwsYk/3onbfXMGMXHrIg+naHohP8s2YDi2gaUQdeBTKbAKAu3MK3RebMZ2yGWwa3HTb5GCqsQfxfdZn5WodwbCl5ZlkApDPEKkvxK5c9kkYqnR1kHjj6jIK0loVN0+zLI2SlAUulmlQkwIUzfZID/3/7Z1PbBPZloc/Rk+tlt7sonJokFoy6hVGiZNNLwiCNPaT2ETZjNSdKC8tHr2bgJNl3EoM6rAMhuym6Yi8yElLs4nYIHUZQguzYGMcC7OZViwhARN7spuRZlY9i3vLdeuf/xfkpe+3SuxyVblc99S55/zOuQlu4SO9+OwMY89vBjoOQnoww4N/dEfTuERq5VJ4+x90R6skLe5Pa5v7G/7XvprJc/nnEafTqkwSC6NVlh6tcaZPX8PJGdfEQ9LOvfuR8DhKXTlFKm+pPm8R2VR++3LDYYWduYQz+/R8BNZfUrzhd5xDduakvbCOE1/AzMyRvFvuwUaVuXO1GiDd8CeUyKaM7B2rgFInhG1//gBozeaH5M0znjBD9KdVymteJ3AsehoRwRojehGZIhrir8kfvSl38Ek5qYZGRLgA6KR4xWV4v91waY1Kq80/rzqrLh3ok6Q3cnP44jGF85dZ9nmQi+OPsfRIRgrkvqPrL5mPKw7nXLvaqw4o5dkExvq5z3Y4OM3lDHx7ZYRbsxsUb5wWKTYCvmOQk4QlPQDYtCcMAXTmEGscvN+nQKGRuhWTsn2+/W0Z88YAA1gOijeyec0aWzdecg9n+j0QOa6G5GeQpT5eRw05ZpTjHHHU+9DrFHnv45nG5FdE/mGD66ObcrIs0u9VXBFpCyuy6YszQ2A5ofYYOWRnboMz0o4fPsyICLKvVKXAnYsvmf+syeGCeJFnczbKzA87HPqM/+jnXqsXRmSz9qpE7ZgFlDQflh6cTZcmAsil042/Helnt/aRmCPcLMLccVIpA7MRpjdIplL0/d52a0sdx3GnCUyyadNnuy75fJJ7a9KIzu0EOEhvqT6Pcvl7GimSgYk1ihM9HBegEf0KwGN4RcFDx1jOj0cHukF1NMGoqThNBzvczBSYWV9zXQeZyj7vlRs4EQ+ECw/nPMU0vWKlRQuZBKNVxelzpSTVa+px2OILFIsLnR14cIChiTWKX+5w/YrUhnYjQ5DSg9ZpUnGtu6GynSb3yv4/kkiRkgOksp3GPGn/r3zKleJxjzn3OHO970rb1XazZPO2EVJtkHo+oSJ/57KSxi3fHWnosptpNq+5dhU81m1d38zf/MeEr2Zz8AJfnb/J/Yezx0BGEaTZRBbXQIEzmEUrcyS2KfjJW5poNgsZbxr9dNQ57SzfTYjUtvy/qY0urTL60w5//b7Drwvw5QLFCfF7tisbCiOyGRmMABXM3Tox3zEl/QHcmkY5fs9NcfsbyKVNTk3H2cuZ1DBIqn8r4z5yMuK0Lx6tpNf/CGe898/+uO2lU6Jn28XkgbJPt0zB478ovpT7vVyaRetv1/Vzn4v7OJXtNDmmuJ2oK/uM9SQT6MHZtDURTfUKr7dYzNVIplYaN1JlO00uveXcvm6STRskUytMG3Kb3FNi/RTjyh/DmF4hJX/k2m6WbDYLqRTjRozplRX79b1412Lggo+g35qFW5pK23jIWXkUONinev4Mp137a1lA4JtCnWP/6zXhqJxfxly7wLNG+l1J1773Gt7Dhz/KB2KV+3OrXPOJxHbGEPPFPNG5BMnRfVE1/8NNCrMbdtoJHNHLYpuRNmHoRVuk61f/hcL6v3d9lsJQi04CY+cLkMxzrZrg+sM891SnL+xUpCNi2UaVqfpALa0yerXK0qMNqldmpY6wOTMdnl5tN0tpeIXb38gXXm+xmMuSGxQG1DhpUPvPGuAy/vU6dQyGDRAPjD3iKytMy7cr22ly2S0iDdtgj0lhAJ1ExlPcHqdHzVTr61sIuoYBRW1DN0Q0s3x3jv02NZuBNLIF3egrRauxWz8943Diw6TND99U4YsEok67MwLT6O/3KYDHOW/gE+E/fJgRGYGGg+YsxBnL5MX1cBU9BmlnC9W3wIB05JvJd1xSmPgCxTVa6E79IpJjLMm/hm7kWZqTdmhiAEsegEPWJCRArRiYWFMkWW1ydopUIks2n2Uxj49W02D8LzHMXIlK/RIRa9hbErtvYkAFqGPm3jG9kqKWzWLmSiRTKchl2XtVZ3xcfKyWz5I7N8XtFfG5XHqLrd2YdN6UIqKUPIf6U7LZLFn67XD2x/5UttPkDpKkVqQ/UX9KNpsm59JVVnJp4ZivxOQ2W+ReKxPzHEytrEifRFyHXPap8FMaqf7mmk3PucjtF7ddv+mrLRZfie8fs461XelaoxtyGr3O7i8VODfliAjGvpkilt6i9BpijYvhnNnEhmOQe0cd+uZsVvKmR4cZGZ8muWfd6P27SQMLhCRDXy8zdmVWpFdUp2pQRD/9DFNwAYEiJrc42OH+Bnz1Nbaxo+xjoNT3LUT148zsDJsbmxSeFxrasp4KfWQk8szdEZkOm+HBmstgN0kLN0cxtP+62HzTFhw+/JHN2css/VbgCaICPTr34R7WgEsrOMT8+gybfsUGlnN+Ua2ahgfFNYYocyekyGZkPNVwEAE4O0zMWToAB3VqQMRjiCPyYWQwnppyfCQ2HINXfGAsna4byzlpcQ0dzoosKFt/yXxcTiJfrDKaUdyIRmRzjK8OYOh9G63JACj4TBxEu7OmxGdZIsHfS5NHXirRPI3eGd5oo7t4TqJkIIKKrgY+j4KZ587cLJtfeB1N32CA+ludX8ZsEdkMLBCyzv1vM9y6qrZ1kgS1xmuHtts/2Y6ViOZtsZh2Re/OJkkazmdpZa9CJJFyOGCRRJIYCNuQmGbcgF33wRzObIxkwiC7V6E2fonIaxOzbpCcVvZqXGIqUbK36eZahEX9KeYrg6QauDIukTxnkturwFnle6jf24gxbJjsHdThrAHEmE6pOzaIDRuYnRQ/1Z9ivoLYtHqNYkxPx1jMiYlBTH29YbOtY0mb3sEhLT6IZjNy0v/U6o2LCPYDSHJ2itsrIZzMoOF7oXyjMGEyOMly5jHJX8vMx0Uc009/o+IXLbWxZ8EA5Z9vQibvMkr7VJnhWqsHTmlDRAQu7rMpNZunH8p2Qx0UCPljaasANo9geq/M3zOw9OgC/GC9NsS82ykOGY+WNb7Ag9kRZzseWf1KRtGSDU5yr+OwRRd40jkCy1BFBiNQF5PF+l6NiFEXk0veUTNONUaaOw3l3MtHRvY9fLCOpwWVA08a/a1oAv7oOyGJWVugOLFAYGHfYDO5hX/BmJNDmsdIB7iQHOPJm0OIhz/W3lYLjEWb9tjqkiaaza4crjZ6X1rEE8w8n2UzoOOEFckWBPxmLSKbrc9B2ID7Lw6ZnAAYI/oZzgm6R6Pbzv3TGU6nM8fuOStIZEU3TSrjU8SkkzWc6NNzta4Gn1z+gu82R4k6ZjaN6X75nPNfp6+kZI8lnvS32KxDDE75fqZGrQ4x6z3FToMSxe2Sj1ogZAweHbFxkEMcJnY6o71kU9uRzYMd7m/McK3oUkL+LNPWvnu3jNJ3VGUF9QB2MVAjStCqQKgZjQeCNPKlVUavWprII1K+cLBPdfY75gfBfjQE96506mD71UZGRJbHkhlHxMFKpY3OiSjJTeloNnfW/aJhXjpLo/u1OpOpGwvjFBHeARVKB3Gm/vJORB1O1mBwWDwMXm+RzeOQ2FjpqI+P6BxBJs9QfIAHv45wp9RuEZVc1ODKLJxfJuqOeimFfR+qMKutzhB9QUwmCxsblCcWPHIgX9TIsF+fzd+WWfpi0xWFc2WLmnYT6LFASjk/UcSp7rtFp4I+YxeFvfV939/GB9iADqKafkTOxYnkTd7VsR2es8PEEFlL46BE7Vyyf3UXLuen620+Cr3XfNR2s+Re+dW79OUECXTg+0TIzqYMvTpmP1DZ3qJiJBu6yfaxRcHBYmBb0OvukSlS86oGAmq7Ocz6x66y89PfeGkvsqk8JJV37aboLUzuf+1TtXSUfVuCUdHEqZGB+ALFdRi9OsvobyFUlHfD4CT3ZOWwjU/6LbTWR8iI2hhffe/esy1DSF5pty9jeAVCKpVtOeasFwwDgxK13T3qw0kiZ2MkfzGpnGw2sauQyzn20j7GKSKYLmlOtxzaHQDk9R26scHj0RHutPFblu+uwg3RC/ZJ8gKTEy+ZdFejh+Bg+lajd0qHvSEbWFKc0iq3ns8wMyuikDPrL+1Utkeuo7xeXEDci3kuW5kU87IcX2XujMJY5kJz+9BkwYmCpxtDO1FNy27JVdQOdriurk70fp8CUa6162h2LRHy4WCfKkLmr56vKOrMU74xpHy3cBZrqORNasRIOsabTHn/kqVeh2SqD1mK+lO28nU79SsdWod+0L1NJzQKmHsogGlmf2Q63AyhBmUrX/eJbEY4ZYDpTtEHnouwu265Q6c0pCQBk5jQI5uR8RQpsmTVEPLH6sJ/dorb01ssqlVaPVZYBdGsQMiDa/WRINqKbPoseWa3EGrWK3CfKlEuxyaZbHUxAirbx6zvK1dbgTGeHVyAH2RluZ9jFl+g+OgM16887nj5yuNK+eebFM4vu9pBuRz2R/tcvyLusU6bgXuR6bi2kQ8Uq1gAiCSmSB5s8a6xTYRTRh0zH2F6RVjD2HCNbL5ObNqp8bLTSwbJ6ST1nL0XbycLoRXzjFtLs6WM7e6qU5VOCI77dYj54oYoQmtyvQuZhIg2Hzzj/nMoPE8wmukgXevG16nwp90VhA7fVCGgs2f5102Y3ejyXO1VlubjC8xfXGX06khg6hminHEtqTuznuf0gYjEmsyRnIOlL2621yvWr/tDt5FNZaJYVCQqy5nHjdXZTr+pwux3Aft1RRPbiCI2KxByc/jiscfRLd8VaX4z+iPJ0RHH6lK94p++VYtMbCLjSWJ5UYHeeQzHIDKIKE5J2685sh9y7OfS6jau4JJH5mN1lukwwtgX+2MwnkpBNqt0t/E55xZY19WueBday9wv7i0NxqeT7GWV69PwufzPpedK/tKqaPVWnOTt3RFuPrzgsZEnfv/999/b3d///s9/d38yx5RP//zPntfKnpUsXBENnxm4x2FwGUnvPnFt22QZNB9Bu3WeanrPdylEd5QjIKLXOL8vn4lU+ewGxYv57iJ7QTj6bPZhf00J7g0KhFiN7mwmb/ddDHZY7N/RPaEI1o459G0tHoTHbdz7jVmwr2Nz5z2oaEhGiGVhkHrvNO+d6TcJdFXH97wylVcG4j8me4i8ynvKI+tQbROu+876Xo3uCUFLPCrOosN2yjHRc4GM6NIhrk/rKKBzKVKrs4ezm0HQPeS0udaY9rvuzrHrdw95JheO7FC766T725XexvzRXMFGEx6f/se/NZ6HbwN8Fe1s9kjQg6tnWjmbHToMH44yd+7CvLqmdNsPglbR1z+Cs3n0OG7j3jNmrXu0E6fOrT9W3yutMvpr4ujokNulpyhggLOoCZ8QbFH3Y75fa5tr/pH49M//Z09oA3wR7Wz2SGjOpkZzRDhu416PWY2mOZ2PeaX5+ZFdL10TFu3YVO1s9oh+cGmOO8dt3Osxq9E057iNeU24tGNT/6mTHZ44caLrkzmO6Ouh+SNwnO7z4/RdNJqw0ONE0y7t3isdOZt/+uQTfRNKTpw4wZ8++eRjn4ZGEzrHZdzrMavRtMdxGfOacOnEpnaURtdoNBqNRqPRaDqho8imRqPRaDQajUbTCdrZ1Gg0Go1Go9GEhnY2NRqNRqPRaDShoZ1NjUaj0Wg0Gk1oaGdTo9FoNBqNRhMa2tnUaDQajUaj0YSGdjY1Go1Go9FoNKHx/3rL52n7qqlMAAAAAElFTkSuQmCC;" vertex="1" parent="1">
                    <mxGeometry x="62" y="290" width="667" height="271" as="geometry"/>
                </mxCell>
            </root>
        </mxGraphModel>
    </diagram>
</mxfile>